<svg width="15" height="15" viewBox="0 0 14 14" fill="none" xmlns="http://www.w3.org/2000/svg">
<path d="M7 0C3.13359 0 0 3.13359 0 7C0 10.8664 3.13359 14 7 14C10.8664 14 14 10.8664 14 7C14 3.13359 10.8664 0 7 0ZM7 13.125C3.62305 13.125 0.875 10.377 0.875 7C0.875 3.62305 3.62305 0.875 7 0.875C10.377 0.875 13.125 3.62305 13.125 7C13.125 10.377 10.377 13.125 7 13.125ZM7 5.03125C7.3623 5.03125 7.65625 4.73758 7.65625 4.375C7.65625 4.0127 7.3623 3.71875 7 3.71875C6.6377 3.71875 6.34375 4.01133 6.34375 4.375C6.34375 4.73867 6.63633 5.03125 7 5.03125ZM8.3125 9.625H7.4375V6.5625C7.4375 6.32188 7.24062 6.125 7 6.125H6.125C5.88438 6.125 5.6875 6.32188 5.6875 6.5625C5.6875 6.80312 5.88438 7 6.125 7H6.5625V9.625H5.6875C5.44688 9.625 5.25 9.82187 5.25 10.0625C5.25 10.3031 5.44688 10.5 5.6875 10.5H8.3125C8.55411 10.5 8.75 10.3041 8.75 10.0625C8.75 9.82187 8.55313 9.625 8.3125 9.625Z" fill="black"/>
</svg>
