<svg width="24" height="24" viewBox="0 0 24 24" fill="none" xmlns="http://www.w3.org/2000/svg">
<circle cx="12" cy="12" r="11.25" stroke="#22379C" stroke-width="0.9375"/>
<path d="M10.0547 15.2578H6.30469V7.24219H13.6875V10.0312M10.0547 15.2578V10.0312H13.6875M10.0547 15.2578V18.4688H17.7656V10.0312H13.6875" stroke="#22379C" stroke-width="0.9375"/>
<rect x="11.6719" y="11.7188" width="4.78125" height="0.9375" fill="#22379C"/>
<rect x="11.6719" y="13.5938" width="4.78125" height="0.9375" fill="#22379C"/>
<rect x="11.6719" y="15.4688" width="4.78125" height="0.9375" fill="#22379C"/>
<rect x="7.59375" y="10.1719" width="2.10938" height="0.9375" fill="#22379C"/>
<rect x="7.59375" y="12.0469" width="2.10938" height="0.9375" fill="#22379C"/>
<mask id="path-8-inside-1_1336_13338" fill="white">
<path d="M16.9219 8.92969C16.9219 7.96372 16.5993 7.02541 16.0054 6.26362C15.4114 5.50183 14.5801 4.9602 13.6433 4.72464C12.7065 4.48909 11.7178 4.5731 10.8342 4.96336C9.95056 5.35362 9.22255 6.02777 8.76567 6.87886L9.52552 7.28677C9.89153 6.60496 10.4747 6.0649 11.1826 5.75226C11.8905 5.43963 12.6825 5.37232 13.433 5.56103C14.1834 5.74973 14.8494 6.18363 15.3252 6.7939C15.8011 7.40417 16.0595 8.15585 16.0595 8.92969H16.9219Z"/>
</mask>
<path d="M16.9219 8.92969C16.9219 7.96372 16.5993 7.02541 16.0054 6.26362C15.4114 5.50183 14.5801 4.9602 13.6433 4.72464C12.7065 4.48909 11.7178 4.5731 10.8342 4.96336C9.95056 5.35362 9.22255 6.02777 8.76567 6.87886L9.52552 7.28677C9.89153 6.60496 10.4747 6.0649 11.1826 5.75226C11.8905 5.43963 12.6825 5.37232 13.433 5.56103C14.1834 5.74973 14.8494 6.18363 15.3252 6.7939C15.8011 7.40417 16.0595 8.15585 16.0595 8.92969H16.9219Z" stroke="#22379C" stroke-width="1.875" mask="url(#path-8-inside-1_1336_13338)"/>
<path d="M16.4531 9.5625L15.4383 8.36719L17.468 8.36719L16.4531 9.5625Z" fill="#22379C"/>
</svg>
