<svg xmlns="http://www.w3.org/2000/svg" width="20" height="20" fill="none" ><style><![CDATA[.B{stroke:#e9ebf5}.C{stroke-width:1.563}.D{stroke-width:.781}]]></style><g stroke="#22379c" class="D"><circle cx="10" cy="10" r="9.609"/><circle cx="10" cy="10" r="4.883"/></g><mask id="A" fill="#fff"><path d="M4.061 1.954a10 10 0 0 0-2.112 2.114l.629.463a9.22 9.22 0 0 1 1.947-1.949l-.464-.628z"/></mask><path d="M4.061 1.954a10 10 0 0 0-2.112 2.114l.629.463a9.22 9.22 0 0 1 1.947-1.949l-.464-.628z" mask="url(#A)" class="B C"/><mask id="B" fill="#fff"><path d="M18.054 4.073a10 10 0 0 0-2.111-2.115l-.464.628c.743.549 1.399 1.206 1.946 1.95l.629-.463z"/></mask><path d="M18.054 4.073a10 10 0 0 0-2.111-2.115l-.464.628c.743.549 1.399 1.206 1.946 1.95l.629-.463z" mask="url(#B)" class="B C"/><mask id="C" fill="#fff"><path d="M15.929 18.053a10 10 0 0 0 2.115-2.111l-.628-.464a9.22 9.22 0 0 1-1.949 1.946l.463.629z"/></mask><path d="M15.929 18.053a10 10 0 0 0 2.115-2.111l-.628-.464a9.22 9.22 0 0 1-1.949 1.946l.463.629z" mask="url(#C)" class="B C"/><mask id="D" fill="#fff"><path d="M1.959 15.945a10 10 0 0 0 2.116 2.11l.463-.629a9.22 9.22 0 0 1-1.95-1.946l-.628.464z"/></mask><path d="M1.959 15.945a10 10 0 0 0 2.116 2.11l.463-.629a9.22 9.22 0 0 1-1.95-1.946l-.628.464z" mask="url(#D)" class="B C"/><path d="M8.043 5.558L4.615 2.129a1.76 1.76 0 0 0-2.486 0h0a1.76 1.76 0 0 0 0 2.486l3.429 3.429m6.458 6.458l3.394 3.394a1.76 1.76 0 0 0 2.486 0h0a1.76 1.76 0 0 0 0-2.486l-3.394-3.394m-8.944-.035l-3.429 3.428a1.76 1.76 0 0 0 0 2.486h0a1.76 1.76 0 0 0 2.486 0l3.429-3.428m6.458-6.46l3.394-3.394a1.76 1.76 0 0 0 0-2.486h0a1.76 1.76 0 0 0-2.486 0l-3.394 3.394" stroke="#22379c" class="D"/></svg>