<svg xmlns="http://www.w3.org/2000/svg" width="320" height="191" fill="none"><style><![CDATA[.B{fill:#22379c}.C{fill:#7a87c4}.D{fill:#bdc3e1}.E{fill:#e1e1e1}.F{fill:#e9ebf5}.G{fill:#cdd1e8}.H{fill:#919bce}]]></style><path d="M169.803 123.565s.304-.428 1.081-.949c.763-.509 2.097-1.074 3.789-.896.833.094 1.744.365 2.576.915.822.549 1.597 1.331 2.082 2.346.255.499.433 1.053.529 1.631.104.577.119 1.184.032 1.788-.147 1.213-.721 2.408-1.613 3.348-.907.924-2.082 1.54-3.289 1.73-.601.108-1.208.114-1.789.031-.581-.076-1.141-.234-1.648-.471-1.032-.449-1.84-1.197-2.418-1.999-.579-.811-.882-1.713-1.005-2.542-.238-1.684.281-3.038.762-3.818.493-.795.911-1.114.911-1.114.031.027-.351.381-.798 1.178-.438.784-.901 2.106-.642 3.718.132.795.435 1.651.997 2.418.561.757 1.337 1.462 2.318 1.878a5.31 5.31 0 0 0 1.565.436 5.32 5.32 0 0 0 1.692-.036c1.141-.184 2.247-.767 3.105-1.64.842-.889 1.386-2.014 1.529-3.161.084-.571.073-1.146-.023-1.692-.088-.548-.252-1.074-.49-1.548-.452-.965-1.183-1.717-1.959-2.25-.786-.535-1.653-.807-2.451-.912a5.79 5.79 0 0 0-3.693.772c-.782.476-1.122.869-1.15.839z" class="E"/><path d="M201.497 138.954c-1.334 1.381-1.296 3.582.086 4.915s3.582 1.296 4.916-.086a3.48 3.48 0 0 0-.087-4.916c-1.381-1.333-3.582-1.295-4.915.087zm-1.728-4.317a7.95 7.95 0 0 1 1.938-.842l.398-1.918 3.241-.057.466 1.903c.679.167 1.342.425 1.967.773l1.637-1.073 2.332 2.251-1.015 1.674a7.93 7.93 0 0 1 .842 1.938l1.917.399.057 3.24-1.902.467a7.92 7.92 0 0 1-.774 1.966l1.074 1.638-2.251 2.331-1.674-1.015a7.95 7.95 0 0 1-1.938.842l-.4 1.918-3.24.057-.466-1.903a7.94 7.94 0 0 1-1.966-.774l-1.638 1.074-2.331-2.251 1.015-1.675a7.89 7.89 0 0 1-.843-1.937l-1.917-.399-.057-3.241 1.902-.466a7.94 7.94 0 0 1 .774-1.966l-1.074-1.638 2.251-2.332 1.675 1.016z" class="D"/><path d="M201.496 138.955s.182-.256.647-.569c.457-.303 1.256-.642 2.269-.536.498.056 1.044.219 1.541.548s.957.797 1.247 1.405c.152.298.258.63.316.976s.071.708.019 1.07c-.087.727-.431 1.442-.965 2.004-.543.554-1.246.922-1.969 1.036a3.32 3.32 0 0 1-1.07.018c-.348-.045-.683-.14-.987-.281-.618-.269-1.102-.718-1.448-1.197a3.51 3.51 0 0 1-.601-1.521c-.143-1.009.168-1.819.456-2.286.295-.476.545-.667.545-.667.019.016-.21.228-.478.705a3.48 3.48 0 0 0-.384 2.226c.08.475.261.988.597 1.447.336.453.8.875 1.388 1.125.288.133.607.219.936.261a3.32 3.32 0 0 0 1.013-.022c.684-.11 1.345-.459 1.859-.982.504-.532.829-1.206.915-1.892.051-.342.044-.685-.014-1.013a3.17 3.17 0 0 0-.293-.927c-.27-.578-.708-1.027-1.173-1.347a3.37 3.37 0 0 0-1.467-.546c-.97-.12-1.751.184-2.211.463-.467.284-.671.52-.688.502zm-1.729-4.318c0 .003-.036-.016-.108-.057l-.321-.185-1.262-.746.04-.005-2.238 2.345.006-.063 1.08 1.633.019.03-.017.031a7.96 7.96 0 0 0-.761 1.953l-.009.038-.039.01-1.901.472.054-.071.064 3.241-.062-.076 1.918.395.049.011.014.048a7.89 7.89 0 0 0 .836 1.915l.027.045-.027.045-1.012 1.675-.014-.11 2.334 2.249-.115-.011 1.636-1.075.048-.032.05.028a7.88 7.88 0 0 0 1.943.763l.057.014.013.057.468 1.902-.096-.074 3.24-.059-.095.079.398-1.918.013-.059.058-.017a7.83 7.83 0 0 0 1.911-.83l.002-.001.053-.03.051.03 1.674 1.016-.124.015 2.252-2.33-.012.122-1.072-1.638-.033-.05.029-.052c.344-.616.6-1.272.765-1.941l.014-.056.057-.015 1.903-.465-.072.094-.054-3.24.073.088-1.917-.401-.053-.011-.015-.052a7.88 7.88 0 0 0-.829-1.918l-.028-.045.028-.044 1.017-1.672.014.102-2.328-2.256.095.009-1.64 1.069-.036.024-.038-.021a7.9 7.9 0 0 0-1.947-.772l-.038-.01-.01-.038-.46-1.905.058.046-3.24.042.042-.035-.411 1.915-.004.019-.018.005c-.686.191-1.168.415-1.482.57l-.349.182-.116.059a1.32 1.32 0 0 1 .108-.073l.342-.197a7.67 7.67 0 0 1 1.479-.603l-.022.025.386-1.921.007-.035h.036l3.24-.072h.047l.012.046.472 1.9-.048-.048a8.07 8.07 0 0 1 1.986.775l-.075.003 1.636-1.077.051-.034.044.043 2.335 2.246.048.045-.034.057-1.012 1.676v-.089a8.02 8.02 0 0 1 .854 1.958l-.068-.063 1.918.397.072.014.002.074.06 3.24.001.075-.073.019-1.903.468.071-.071c-.168.686-.43 1.358-.782 1.991l-.004-.101 1.075 1.637.043.065-.055.057-2.25 2.333-.055.057-.069-.042-1.674-1.014h.104l-.002.001a8.1 8.1 0 0 1-1.961.851l.07-.075-.4 1.917-.016.078-.078.001-3.241.055-.078.002-.018-.076-.466-1.903.071.071c-.721-.177-1.404-.457-1.989-.784l.098-.004-1.639 1.072-.062.041-.053-.052-2.329-2.254-.051-.049.037-.061 1.017-1.673v.089a8.02 8.02 0 0 1-.847-1.959l.062.058-1.917-.403-.061-.013-.002-.063-.049-3.24-.001-.057.055-.013 1.904-.461-.048.048a8.03 8.03 0 0 1 .786-1.979l.003.06-1.068-1.642-.022-.034.029-.029 2.264-2.318.018-.018.021.013 1.234.768.317.201.107.073z" fill="#ececec"/><path d="M138.315 150.971l6.383 16.924-21.17 7.984-6.382-16.924 21.169-7.984z" fill="#fafafa"/><path d="M138.316 150.971l-.101.042-.296.116-1.148.44-4.328 1.649-15.275 5.792.034-.076 6.388 16.92.001.002-.084-.038 21.173-7.973-.032.07-4.603-12.285-1.28-3.436-.336-.906-.113-.317s.042.1.12.301l.344.893 1.302 3.415 4.668 12.296.019.051-.051.019-21.165 7.995-.062.023-.023-.062v-.001l-6.376-16.925-.02-.056.055-.02 15.331-5.751 4.327-1.615 1.142-.423.292-.107.097-.033z" class="F"/><path d="M123.857 174.538l19.682-7.422-5.579-14.793-19.681 7.422 5.578 14.793z" class="G"/><path d="M123.859 174.538l3.407-11.788 6.428 4.147 1.728-4.165 8.119 4.384-19.682 7.422zm9.047-15.201c.323.855-.11 1.811-.965 2.134a1.66 1.66 0 0 1-2.135-.966c-.323-.856.11-1.811.966-2.134s1.811.11 2.134.966zm7.538-126.883l6.012 15.066 6.288-2.231 6.68 5.363-6.346-11.873-5.606 1.845-7.028-8.17zm15.532-16.25l-.035 10.906 4.292.188 2.698 5.023-.933-8.998-3.792-.258-2.23-6.86z" class="D"/><path d="M204.729 30.942c-.243.616-5.321 16.461-5.321 16.461l-3.348-2.515-8.804 7.278 8.343-14.285 3.146 2.111 5.984-9.049z" class="E"/><path d="M113.243 54.932L90.63 52.237a2.85 2.85 0 0 1-2.492-3.167l3.731-31.3a2.85 2.85 0 0 1 3.166-2.492l14.341 1.709 9.737 12.766-2.704 22.687a2.85 2.85 0 0 1-3.167 2.492z" class="D"/><path d="M109.379 16.986l-1.05 8.809a2.65 2.65 0 0 0 2.318 2.945l8.47 1.011-9.738-12.766z" class="G"/><path d="M108.352 26.583s-.366 2.123 1.983 3.115c.088.038.179.069.271.096l8.228 2.325.283-2.367-8.471-1.009s-2.106-.324-2.294-2.16z" class="E"/><path d="M106.477 25.211c-.014.113-2.367-.074-5.256-.419l-5.206-.829c.014-.113 2.366.074 5.256.419l5.206.829zm6.161 5.787c-.013.113-3.879-.255-8.633-.821l-8.585-1.231c.014-.113 3.878.255 8.634.821l8.584 1.231zm1.056 4.344c-.014.113-4.226-.296-9.409-.914l-9.361-1.324c.014-.113 4.226.296 9.41.914l9.36 1.323zm-.468 3.922c-.014.113-4.227-.296-9.409-.914l-9.361-1.324c.014-.113 4.226.296 9.41.914l9.36 1.324zm-.47 3.924c-.013.113-4.227-.296-9.409-.914l-9.36-1.324c.014-.113 4.226.296 9.409.914l9.36 1.323zm-.466 3.925c-.013.113-4.226-.296-9.408-.914l-9.361-1.324c.013-.113 4.225.296 9.41.914l9.359 1.323z" fill="#fafafa"/><path d="M267.117 42.81a13.56 13.56 0 0 1-13.557 13.557 13.56 13.56 0 0 1-13.558-13.557 13.56 13.56 0 0 1 13.558-13.557 13.56 13.56 0 0 1 13.557 13.557z" class="F"/><path d="M250.29 46.775v-7.999a.51.51 0 0 1 .759-.443l7.15 4.03a.51.51 0 0 1-.003.888l-7.15 3.969a.51.51 0 0 1-.756-.445z" class="D"/><path d="M314.408 45.076l-20.074-6.598 4.447-13.53 20.074 6.598-4.447 13.53z" class="F"/><g class="E"><path d="M318.863 31.73c.003.006-.082.047-.246.119l-.72.305-2.663 1.093-8.834 3.549-.073.03-.043-.066-.104-.159-5.26-8.089-1.575-2.463-.42-.675-.135-.242a1.72 1.72 0 0 1 .168.221l.45.656 1.626 2.43 5.307 8.058.104.159-.116-.037 8.855-3.497 2.686-1.037.733-.272.26-.083z"/><path d="M294.343 38.661c-.028-.045 2.092-1.404 4.733-3.034l4.834-2.871c.027.045-2.091 1.403-4.733 3.034l-4.834 2.871zm16.294-3.88c.05-.018.936 2.314 1.979 5.207l1.799 5.272c-.049.018-.935-2.313-1.979-5.207l-1.799-5.272z"/></g><path d="M264.06 12.542a3.82 3.82 0 0 1-3.817-3.817 3.82 3.82 0 0 1 3.817-3.817 3.82 3.82 0 0 1 3.817 3.817 3.82 3.82 0 0 1-3.817 3.817zm8.674-3.777c0-5.34-4.826-9.553-10.355-8.516-3.478.652-6.249 3.493-6.858 6.978-.381 2.178.069 4.228 1.062 5.919h-.005l.025.033c.333.561.75.961 1.17 1.55l5.036 6.671a1.57 1.57 0 0 0 2.501 0l4.952-6.561s.925-1.102 1.26-1.669l.018-.024h-.004a8.62 8.62 0 0 0 1.198-4.382zM51.117 11.35c1.59-.667 2.721-2.307 2.73-4.239.01-2.531-1.906-4.592-4.279-4.603s-4.305 2.032-4.316 4.564c-.008 1.95 1.131 3.609 2.738 4.279-6.613.996-6.313 8.184-6.313 8.184l15.638.072s.357-7.265-6.199-8.256zM17.879 47.415a2.731 2.731 0 1 0 3.93 3.794 2.731 2.731 0 1 0-3.93-3.794zm-1.357-3.391a6.25 6.25 0 0 1 1.522-.662l.314-1.506 2.546-.045.367 1.494a6.24 6.24 0 0 1 1.544.608l1.286-.843 1.832 1.768-.797 1.315a6.23 6.23 0 0 1 .661 1.522l1.506.314.045 2.546-1.494.367a6.21 6.21 0 0 1-.608 1.544l.843 1.286-1.768 1.832-1.315-.797a6.23 6.23 0 0 1-1.522.661l-.314 1.507-2.545.045-.367-1.494a6.24 6.24 0 0 1-1.544-.608l-1.287.843-1.832-1.768.798-1.315a6.23 6.23 0 0 1-.662-1.522l-1.506-.314-.045-2.546 1.495-.366a6.24 6.24 0 0 1 .607-1.545l-.843-1.286 1.768-1.832 1.315.798z" class="D"/><path d="M17.876 47.414s.143-.201.509-.447a2.72 2.72 0 0 1 1.782-.421c.392.044.821.172 1.211.43s.751.626.979 1.104c.12.234.203.495.248.766a2.75 2.75 0 0 1 .015.841 2.81 2.81 0 0 1-.758 1.575c-.427.434-.979.724-1.547.813a2.62 2.62 0 0 1-.841.014 2.62 2.62 0 0 1-.775-.222 2.8 2.8 0 0 1-1.137-.94c-.272-.382-.415-.805-.472-1.195a2.72 2.72 0 0 1 .358-1.795c.232-.374.428-.524.428-.524.015.013-.165.179-.375.554a2.72 2.72 0 0 0-.302 1.748 2.65 2.65 0 0 0 .469 1.137 2.68 2.68 0 0 0 1.09.884 2.51 2.51 0 0 0 .736.205 2.51 2.51 0 0 0 .796-.017 2.67 2.67 0 0 0 1.46-.771 2.68 2.68 0 0 0 .719-1.486c.04-.268.034-.539-.011-.796a2.5 2.5 0 0 0-.23-.728c-.212-.454-.556-.807-.921-1.058s-.777-.379-1.152-.429a2.73 2.73 0 0 0-1.737.363c-.367.224-.527.409-.54.395zm-1.357-3.391a.6.6 0 0 1-.085-.045l-.252-.146-.992-.586.031-.004-1.758 1.842.005-.049.848 1.283.015.023-.013.025a6.22 6.22 0 0 0-.598 1.534l-.008.03-.03.008-1.494.371.043-.055.051 2.545-.049-.059 1.507.31.038.008.011.038a6.19 6.19 0 0 0 .657 1.505l.022.035-.022.035-.795 1.316-.011-.086 1.834 1.766-.091-.008 1.286-.844.038-.025.039.022a6.2 6.2 0 0 0 1.526.599l.045.011.011.044.368 1.495-.076-.059 2.545-.046-.075.062.314-1.506.009-.047.046-.013a6.22 6.22 0 0 0 1.502-.652l.001-.001.041-.024.04.024 1.315.798-.097.012 1.769-1.831-.009.096-.843-1.287-.026-.039.023-.041a6.17 6.17 0 0 0 .601-1.525l.011-.045.045-.01 1.495-.366-.057.074-.042-2.546.057.069-1.506-.316-.042-.009-.012-.04a6.2 6.2 0 0 0-.652-1.507l-.021-.035.021-.035.8-1.314.01.081-1.828-1.772.074.007-1.289.84-.029.019-.03-.017a6.24 6.24 0 0 0-1.529-.607l-.03-.008-.007-.03-.361-1.496.046.035-2.546.033.034-.028-.323 1.505-.004.015-.015.005a6.5 6.5 0 0 0-1.164.447l-.274.143-.091.047c0-.002.029-.022.084-.058l.268-.155a6.02 6.02 0 0 1 1.162-.473l-.018.019.304-1.509.006-.027.028-.001 2.545-.056.037-.001.009.036.371 1.493-.038-.038a6.29 6.29 0 0 1 1.56.608l-.058.002 1.284-.846.04-.026.035.034 1.835 1.765.037.036-.027.045-.795 1.316v-.07c.285.469.514.986.671 1.538l-.053-.05 1.507.312.056.012.001.058.047 2.545.001.059-.058.014-1.494.367.055-.055c-.133.539-.337 1.067-.614 1.564l-.003-.08.844 1.286.034.052-.043.045-1.768 1.832-.043.045-.053-.033-1.315-.797h.081-.002a6.3 6.3 0 0 1-1.54.669l.055-.059-.314 1.507-.013.061h-.062l-2.546.044-.061.001-.014-.06-.366-1.495.055.055a6.33 6.33 0 0 1-1.562-.616l.077-.003-1.288.843-.049.032-.042-.04-1.829-1.771-.04-.039.029-.047.799-1.314v.07a6.35 6.35 0 0 1-.666-1.54l.049.046-1.506-.316-.048-.01v-.049l-.039-2.545-.001-.045.043-.011 1.496-.362-.038.038a6.27 6.27 0 0 1 .617-1.554l.002.047-.838-1.29-.017-.027.022-.022 1.779-1.821.014-.015.017.01.969.603.249.158.085.058zm261.213 121.805c0 .002-.028-.013-.084-.045l-.253-.146-.991-.585.031-.004-1.758 1.841.005-.049.848 1.283.015.023-.013.025a6.22 6.22 0 0 0-.598 1.534l-.008.03-.03.008-1.494.37.043-.055.051 2.546-.049-.059 1.507.31.038.008.011.038a6.19 6.19 0 0 0 .657 1.505l.021.035-.021.035-.795 1.316-.012-.087 1.834 1.766-.09-.008 1.285-.844.038-.025.039.022c.449.25.974.463 1.526.599l.045.011.011.045.367 1.494-.076-.059 2.546-.045-.075.061.313-1.506.01-.046.045-.014a6.11 6.11 0 0 0 1.502-.652l.001-.001.042-.023.04.023 1.315.798-.097.012 1.769-1.831-.009.097-.843-1.287-.025-.039.023-.041c.27-.484.47-.999.6-1.525l.012-.044.044-.011 1.495-.365-.057.074-.042-2.546.057.069-1.506-.316-.041-.008-.012-.041c-.153-.54-.375-1.047-.652-1.506l-.021-.036.021-.035.8-1.314.01.081-1.828-1.772.075.007-1.289.84-.029.018-.029-.016c-.513-.287-1.027-.481-1.53-.606l-.03-.008-.007-.03-.362-1.496.046.035-2.546.033.034-.027-.323 1.504-.003.015-.015.004c-.538.151-.917.327-1.164.448l-.274.143-.091.047c0-.002.029-.022.085-.058l.268-.155c.244-.129.622-.314 1.162-.473l-.017.019.303-1.508.006-.028h.028l2.546-.056.036-.001.01.036.371 1.493-.038-.038a6.36 6.36 0 0 1 1.56.609l-.058.002 1.284-.846.04-.027.034.034 1.836 1.764.037.037-.027.044-.795 1.317v-.07c.284.468.514.986.671 1.538l-.053-.05 1.507.312.056.011.001.058.047 2.546.001.059-.058.014-1.494.368.056-.055c-.132.538-.338 1.067-.615 1.563l-.002-.079.843 1.285.034.053-.042.044-1.768 1.832-.044.045-.053-.033-1.316-.797h.081l-.001.001c-.494.299-1.026.524-1.54.669l.055-.059-.314 1.507-.013.06-.061.001-2.546.044-.061.001-.015-.059-.365-1.496.055.056a6.33 6.33 0 0 1-1.562-.616l.077-.003-1.287.842-.05.032-.042-.04-1.829-1.771-.04-.039.029-.048.799-1.313v.07a6.35 6.35 0 0 1-.666-1.54l.049.045-1.506-.316-.048-.01v-.05l-.039-2.545-.001-.045.044-.01 1.495-.362-.038.037c.144-.574.36-1.096.617-1.554l.002.047-.838-1.29-.017-.026.022-.023 1.779-1.821.014-.015.017.011.969.603.249.158.084.058z" fill="#ececec"/><path d="M231.043 34.998l-.891-1.468c-7.508-12.372-21.082-19.831-35.394-18.925a37.44 37.44 0 0 0-5.479.753c-13.012 2.785-24.334 12.626-29.027 25.228-2.76 7.411-3.532 15.945-8.769 21.828-6.817 7.656-18.39 7.897-28.565 7.58s-21.756-.047-28.539 7.639c-4.248 4.814-5.599 11.66-5.256 18.107.907 17.069 12.801 32.33 27.926 39.917s32.935 8.265 49.489 4.927c23.19-4.674 45.244-17.512 58.5-37.341s16.611-46.843 6.005-68.244z" class="F"/><path d="M169.331 51.224c-.05.04-1.56-1.791-3.372-4.09L162.77 42.9c.051-.04 1.56 1.791 3.372 4.09l3.189 4.234zm6.155 1.349c-.064.005-.494-4.623-.959-10.336l-.728-10.356c.065-.005.494 4.622.96 10.337l.727 10.355zm4.781-1.132c-.059-.028 1.191-2.792 2.789-6.173l3.001-6.074c.058.028-1.191 2.791-2.79 6.174l-3 6.074zm-1.977 40.545c.051-.039 1.536 1.813 3.316 4.135l3.131 4.277c-.051.039-1.535-1.812-3.316-4.135l-3.131-4.277zm-4.107.416c.065-.004.431 4.63.82 10.349l.586 10.365c-.064.004-.431-4.629-.819-10.35l-.587-10.364zm-3.676-.946c.057.028-1.229 2.775-2.874 6.135l-3.083 6.033c-.057-.028 1.229-2.774 2.874-6.135l3.083-6.032z" class="B"/><g class="H"><path d="M297.904 87.189l.146 1.076.225 2.657-3.183-1.16-11.365-2.58c-2.338-.531-4.734-.933-7.122-1.194l-46.562-5.091-.062-.012-19.931-3.825.59-3.076 19.869 3.813 46.437 5.077c2.506.274 5.021.696 7.475 1.253l13.483 3.061z"/><path d="M191.878 58.758l8.676 1.01c7.105.827 12.194 7.257 11.367 14.362l-.206 1.775c-.827 7.105-7.257 12.194-14.362 11.367l-8.676-1.01c-3.293-.383-5.653-3.364-5.269-6.657l1.813-15.577c.383-3.293 3.364-5.653 6.657-5.269z"/></g><g opacity=".3" class="C"><path d="M189.988 86.414s3.731-3.97 4.867-14.837c.833-7.972-1.779-12.68-1.779-12.68l-1.051-.123s1.753 11.562.631 14.251-3.13 13.335-3.13 13.335l.462.054z"/></g><path d="M182.724 71.871c1.152-9.906 2.169-18.636 7.493-17.307 2.917.728 4.472 8.66 3.319 18.566s-4.506 16.977-7.494 17.307c-5.091.563-4.471-8.66-3.318-18.565z" class="B"/><path d="M181.97 71.784c1.152-9.906 4.129-17.699 6.648-17.405s3.627 8.561 2.475 18.467-4.13 17.699-6.649 17.405-3.627-8.561-2.474-18.467z" class="C"/><g opacity=".3" class="C"><path d="M181.97 71.783c1.152-9.906 4.129-17.699 6.648-17.405s3.627 8.561 2.475 18.467-4.131 17.699-6.649 17.405-3.627-8.561-2.474-18.467z"/></g><path d="M186.045 90.436c-.016-.036.587-.031 1.37-.656.784-.604 1.667-1.769 2.468-3.349 1.609-3.168 2.924-7.965 3.544-13.351s.467-10.357-.347-13.815c-.404-1.725-.993-3.065-1.631-3.821-.64-.775-1.255-.845-1.229-.88 0 0 .141.013.383.12.244.102.582.321.914.701.676.756 1.296 2.108 1.723 3.842.862 3.479 1.046 8.474.419 13.881s-1.97 10.223-3.63 13.4c-.826 1.584-1.741 2.752-2.559 3.346-.404.301-.771.459-1.028.521-.256.068-.397.063-.397.063zm-1.602-.186c-.001-.018.139-.004.383-.075.245-.065.591-.232.95-.559.727-.646 1.489-1.867 2.163-3.475 1.365-3.219 2.473-7.968 3.094-13.267s.574-10.18-.03-13.624c-.296-1.718-.744-3.082-1.277-3.897-.261-.409-.543-.668-.76-.8-.213-.139-.354-.157-.348-.175.001-.004.034.004.098.022a1.01 1.01 0 0 1 .274.113c.231.123.533.38.812.791.568.817 1.044 2.191 1.362 3.917.651 3.461.72 8.36.101 13.68s-1.76 10.078-3.175 13.305c-.699 1.611-1.49 2.837-2.255 3.479-.376.324-.742.484-.997.536-.127.034-.228.033-.294.034s-.101 0-.101-.004zm3.147-23.215c-.189 1.625-.76 2.894-1.276 2.834s-.781-1.426-.592-3.051.761-2.894 1.277-2.834.78 1.426.591 3.051zm-1.053 10.9c-.189 1.625-.76 2.894-1.276 2.834s-.781-1.426-.591-3.051.76-2.894 1.276-2.834.781 1.426.591 3.051z" class="B"/><path d="M210.507 78.167l6.081.714.823-3.855-5.554-1.723-1.35 4.864z" class="H"/><path d="M216.554 78.996c-.066-.01.052-.92.315-2.011l.541-1.958c.067.011-.052.92-.315 2.011l-.541 1.957zm-4.525-8.231c.016-.002.046.143.085.407a13.34 13.34 0 0 1 .108 1.125c.054.952.034 2.281-.202 3.722s-.644 2.71-1.03 3.584l-.501 1.014c-.135.231-.216.354-.23.347-.034-.019.239-.54.578-1.423s.722-2.135.954-3.559.278-2.733.266-3.679l-.028-1.537z" class="B"/><path d="M54.999 52.979h0z" fill="#ff9c6a"/><g class="H"><path d="M42.016 92.794l.469 1.645 3.096.516c5.849-1.495 30.187-6.721 55.826-12.225l.494-.106 40.277-8.677-.664-3.061-40.735 8.775-.029.006-57.329 12.645-1.405.482z"/><path d="M156.603 83.938l-8.591 1.576c-7.036 1.291-13.785-3.366-15.075-10.402l-.323-1.758c-1.29-7.035 3.367-13.785 10.402-15.075l8.591-1.576c3.262-.598 6.39 1.561 6.989 4.822l2.829 15.425c.598 3.261-1.561 6.39-4.822 6.988z"/></g><g opacity=".3" class="C"><path d="M150.314 56.942s-2.404 4.888-.308 15.611c1.539 7.867 5.415 11.604 5.415 11.604l1.041-.191s-5.062-10.542-4.777-13.441-.913-13.667-.913-13.667l-.458.084z"/></g><path d="M161.51 68.721c1.799 9.809 3.386 18.454-2.095 18.743-3.002.158-6.813-6.97-8.612-16.779s-.664-17.552 2.096-18.743c4.703-2.03 6.812 6.97 8.611 16.779z" class="B"/><path d="M162.258 68.584c1.799 9.809 1.236 18.132-1.259 18.59s-5.975-7.124-7.774-16.933-1.236-18.132 1.259-18.589 5.975 7.124 7.774 16.933z" class="C"/><g opacity=".3" class="C"><path d="M162.261 68.587c1.799 9.809 1.236 18.132-1.258 18.59s-5.976-7.124-7.775-16.933-1.236-18.132 1.259-18.589 5.975 7.124 7.774 16.933z"/></g><path d="M170.531 63.181l-13.792 2.53c-.029.005-.058-.007-.075-.03-1.035-1.395-1.289-2.777-.762-4.147.009-.024.032-.043.058-.048l13.796-2.53a2.15 2.15 0 0 1 2.5 1.725 2.15 2.15 0 0 1-1.725 2.5z" class="G"/><path d="M170.532 63.181c-.003-.015.136-.032.376-.131a2.14 2.14 0 0 0 .884-.679c.298-.379.527-.985.403-1.668a2.09 2.09 0 0 0-1.491-1.62c-.419-.133-.862-.065-1.342.038l-1.49.28-3.287.614-7.535 1.391-.996.183-.062.012c.025-.032.015-.011.008.011l-.02.058-.076.231c-.046.155-.08.313-.107.471-.104.635-.021 1.281.197 1.865a5.13 5.13 0 0 0 .402.839l.251.387.066.094c.021.032.057.073.027.048-.041-.002.016-.007.053-.015l.114-.02 1.779-.323 6.16-1.104 4.157-.725 1.132-.186.397-.049c.002.008-.132.04-.389.095l-1.124.229-4.143.798-6.151 1.153-1.778.33-.114.022-.057.01a.21.21 0 0 1-.118-.007.21.21 0 0 1-.092-.076l-.034-.048-.068-.097c-.094-.127-.177-.264-.262-.4a5.25 5.25 0 0 1-.422-.876c-.231-.614-.322-1.304-.211-1.98a3.93 3.93 0 0 1 .112-.5c.021-.083.052-.163.08-.245l.021-.061c.009-.017.006-.039.045-.091.026-.039.099-.067.123-.067l.062-.012.996-.183 7.539-1.373 3.29-.593 1.492-.267c.464-.097.977-.169 1.42-.019a2.23 2.23 0 0 1 1.574 1.756c.12.728-.138 1.361-.459 1.747-.325.396-.691.581-.939.667s-.393.088-.393.088z" class="B"/><path d="M172.623 74.574l-13.839 2.538c-.968-1.3-1.38-2.685-.775-4.225l13.839-2.538a2.15 2.15 0 0 1 2.499 1.725 2.15 2.15 0 0 1-1.724 2.5z" class="G"/><path d="M172.62 74.575c-.003-.015.136-.031.376-.131a2.15 2.15 0 0 0 .885-.68c.298-.379.526-.986.401-1.669a2.09 2.09 0 0 0-1.492-1.62c-.42-.132-.863-.064-1.344.039l-1.49.28-3.289.614-7.538 1.392-1.101.202.087-.072c-.286.711-.353 1.486-.183 2.199.164.715.525 1.355.939 1.917l-.109-.043 9.934-1.78 2.883-.496.772-.123.269-.029s-.088.029-.262.068l-.765.159-2.871.56-9.92 1.861-.068.013-.042-.056c-.427-.576-.808-1.241-.984-1.999-.183-.755-.11-1.587.191-2.335l.024-.061.063-.011 1.101-.202 7.542-1.374 3.292-.593 1.493-.267c.464-.097.977-.17 1.421-.021a2.23 2.23 0 0 1 1.575 1.755c.121.728-.137 1.362-.458 1.748a2.11 2.11 0 0 1-.939.667c-.251.088-.393.088-.393.088zM152.9 51.942c.026.029-.552.202-1.118 1.028-.573.807-1.076 2.179-1.379 3.925-.61 3.5-.463 8.473.523 13.804.98 5.333 2.587 10.039 4.378 13.108.891 1.531 1.847 2.64 2.679 3.176.839.554 1.447.44 1.433.481 0 0-.139.029-.402-.002s-.65-.137-1.08-.403c-.866-.525-1.855-1.636-2.771-3.169-1.843-3.074-3.482-7.796-4.466-13.15s-1.113-10.352-.455-13.875c.326-1.756.859-3.141 1.467-3.948.298-.406.603-.665.83-.799.225-.14.361-.176.361-.176zm1.583-.29c.007.017-.131.044-.345.184-.214.134-.496.395-.744.813-.506.831-.876 2.222-1.049 3.957-.363 3.478-.031 8.342.926 13.592.963 5.251 2.433 9.902 4.02 13.017.787 1.557 1.614 2.73 2.363 3.352.369.314.715.48.96.543.246.069.386.046.385.066 0 .004-.034.006-.101.008a1.01 1.01 0 0 1-.294-.028c-.257-.05-.621-.207-1.008-.518-.783-.615-1.64-1.789-2.451-3.347-1.636-3.119-3.137-7.782-4.103-13.051-.96-5.266-1.268-10.152-.861-13.652.196-1.745.594-3.149 1.137-3.987.265-.42.567-.681.796-.805.111-.07.208-.098.272-.118s.096-.029.097-.025z" class="B"/><path d="M127.044 73.537l1.009 3.937 5.502-.803.02-4.715-6.531 1.581z" class="H"/><path d="M134.606 79.457c-.013.008-.103-.111-.253-.336a9.24 9.24 0 0 1-.565-.997c-.435-.865-.903-2.132-1.182-3.587s-.305-2.806-.218-3.771a8.56 8.56 0 0 1 .159-1.135c.057-.265.096-.409.112-.406.04.007-.066.594-.106 1.551a16.79 16.79 0 0 0 .282 3.717 16.24 16.24 0 0 0 1.103 3.56l.668 1.403zm-6.464-1.924c-.062.017-.359-.847-.663-1.931s-.5-1.977-.438-1.994.359.847.663 1.931.5 1.977.438 1.994z" class="B"/></svg>