<svg width="28" height="28" viewBox="0 0 28 28" fill="none" xmlns="http://www.w3.org/2000/svg">
<mask id="path-1-inside-1_766_26132" fill="white">
<path d="M25.4477 6.50934C24.2546 4.58992 22.6044 2.99618 20.6447 1.8707C18.6849 0.745216 16.4767 0.123102 14.2176 0.0600154C11.9585 -0.00307135 9.71902 0.494837 7.69948 1.50919C5.67995 2.52355 3.94337 4.02271 2.6451 5.87256L3.54013 6.50071C4.73456 4.79881 6.33225 3.41955 8.19027 2.48632C10.0483 1.55309 12.1087 1.095 14.1871 1.15304C16.2655 1.21108 18.2971 1.78344 20.1001 2.81891C21.9031 3.85438 23.4214 5.32066 24.519 7.08656L25.4477 6.50934Z"/>
</mask>
<path d="M25.4477 6.50934C24.2546 4.58992 22.6044 2.99618 20.6447 1.8707C18.6849 0.745216 16.4767 0.123102 14.2176 0.0600154C11.9585 -0.00307135 9.71902 0.494837 7.69948 1.50919C5.67995 2.52355 3.94337 4.02271 2.6451 5.87256L3.54013 6.50071C4.73456 4.79881 6.33225 3.41955 8.19027 2.48632C10.0483 1.55309 12.1087 1.095 14.1871 1.15304C16.2655 1.21108 18.2971 1.78344 20.1001 2.81891C21.9031 3.85438 23.4214 5.32066 24.519 7.08656L25.4477 6.50934Z" stroke="#22379C" stroke-width="2.1875" mask="url(#path-1-inside-1_766_26132)"/>
<mask id="path-2-inside-2_766_26132" fill="white">
<path d="M3.24924 5.07544C1.8192 6.82542 0.845284 8.90261 0.41461 11.1212C-0.0160636 13.3397 0.109942 15.6304 0.781353 17.7883C1.45276 19.9463 2.64864 21.9041 4.26199 23.4867C5.87533 25.0692 7.85583 26.2272 10.0263 26.8569L10.331 25.8068C8.33411 25.2274 6.51201 24.1621 5.0277 22.7061C3.54338 21.2501 2.44315 19.4488 1.82544 17.4635C1.20772 15.4781 1.0918 13.3706 1.48803 11.3295C1.88426 9.28842 2.78028 7.37737 4.09594 5.76734L3.24924 5.07544Z"/>
</mask>
<path d="M3.24924 5.07544C1.8192 6.82542 0.845284 8.90261 0.41461 11.1212C-0.0160636 13.3397 0.109942 15.6304 0.781353 17.7883C1.45276 19.9463 2.64864 21.9041 4.26199 23.4867C5.87533 25.0692 7.85583 26.2272 10.0263 26.8569L10.331 25.8068C8.33411 25.2274 6.51201 24.1621 5.0277 22.7061C3.54338 21.2501 2.44315 19.4488 1.82544 17.4635C1.20772 15.4781 1.0918 13.3706 1.48803 11.3295C1.88426 9.28842 2.78028 7.37737 4.09594 5.76734L3.24924 5.07544Z" stroke="#22379C" stroke-width="2.1875" mask="url(#path-2-inside-2_766_26132)"/>
<mask id="path-3-inside-3_766_26132" fill="white">
<path d="M9.03547 26.528C11.1515 27.3215 13.4313 27.5781 15.6708 27.2747C17.9104 26.9714 20.0398 26.1177 21.8685 24.7899C23.6973 23.4621 25.1684 21.7017 26.1502 19.6661C27.132 17.6306 27.5939 15.3834 27.4946 13.1256L26.4022 13.1737C26.4936 15.2509 26.0686 17.3184 25.1653 19.1911C24.2621 21.0639 22.9086 22.6835 21.2261 23.9051C19.5436 25.1267 17.5845 25.9121 15.5241 26.1912C13.4637 26.4702 11.3662 26.2342 9.41941 25.5041L9.03547 26.528Z"/>
</mask>
<path d="M9.03547 26.528C11.1515 27.3215 13.4313 27.5781 15.6708 27.2747C17.9104 26.9714 20.0398 26.1177 21.8685 24.7899C23.6973 23.4621 25.1684 21.7017 26.1502 19.6661C27.132 17.6306 27.5939 15.3834 27.4946 13.1256L26.4022 13.1737C26.4936 15.2509 26.0686 17.3184 25.1653 19.1911C24.2621 21.0639 22.9086 22.6835 21.2261 23.9051C19.5436 25.1267 17.5845 25.9121 15.5241 26.1912C13.4637 26.4702 11.3662 26.2342 9.41941 25.5041L9.03547 26.528Z" stroke="#22379C" stroke-width="2.1875" mask="url(#path-3-inside-3_766_26132)"/>
<path d="M26.3266 8.75341C26.3305 8.87965 26.1963 8.96275 26.085 8.903L23.9153 7.73785C23.804 7.6781 23.7992 7.5203 23.9065 7.45382L26.0005 6.15738C26.1078 6.09089 26.2469 6.16558 26.2508 6.29182L26.3266 8.75341Z" fill="#22379C"/>
<path d="M4.9925 3.44526C5.1104 3.4 5.2331 3.49934 5.21335 3.62408L4.82824 6.05654C4.80849 6.18128 4.66111 6.23787 4.56296 6.1584L2.64894 4.60865C2.55078 4.52918 2.57547 4.37325 2.69337 4.32799L4.9925 3.44526Z" fill="#22379C"/>
<path d="M6.97552 25.2453C6.8992 25.1446 6.96044 24.9991 7.08574 24.9833L9.52921 24.6757C9.65451 24.6599 9.74991 24.7857 9.70092 24.9021L8.74565 27.172C8.69666 27.2884 8.54002 27.3082 8.46371 27.2075L6.97552 25.2453Z" fill="#22379C"/>
<path fill-rule="evenodd" clip-rule="evenodd" d="M20.8959 7.56749L13.873 5.42574C13.8218 5.41013 13.7671 5.41017 13.716 5.42585L6.72656 7.56749V13.0112C6.72656 14.0714 6.94489 15.1203 7.36794 16.0925L7.62289 16.6784C8.17895 17.9563 9.07046 19.0599 10.2029 19.8722L12.7709 21.7143C13.0653 21.9255 13.4185 22.0391 13.7808 22.0391C14.1392 22.0391 14.4888 21.9279 14.7814 21.721L17.3889 19.8766C18.5409 19.0618 19.4476 17.947 20.0106 16.6531L20.2546 16.0925C20.6776 15.1203 20.8959 14.0714 20.8959 13.0112V7.56749ZM19.8022 13.0112V8.37742L13.7952 6.5455L7.82031 8.3763V13.0112C7.82031 13.9213 8.00772 14.8216 8.37086 15.6561L8.6258 16.242C9.10311 17.3389 9.86835 18.2862 10.8404 18.9835L13.4084 20.8256C13.517 20.9034 13.6472 20.9453 13.7808 20.9453C13.913 20.9453 14.0419 20.9043 14.1498 20.828L16.7573 18.9837C17.7461 18.2843 18.5244 17.3273 19.0077 16.2167L19.2517 15.6561C19.6148 14.8216 19.8022 13.9213 19.8022 13.0112Z" fill="#22379C"/>
<path d="M10.9128 14.2734L12.4988 15.8594L16.7644 11.5938" stroke="#22379C" stroke-width="1.09375" stroke-linecap="round" stroke-linejoin="round"/>
</svg>
