<svg width="28" height="28" viewBox="0 0 28 28" fill="none" xmlns="http://www.w3.org/2000/svg">
<mask id="path-1-inside-1_766_26079" fill="white">
<rect x="1.14844" y="1.14844" width="25.7031" height="25.7031" rx="0.4375"/>
</mask>
<rect x="1.14844" y="1.14844" width="25.7031" height="25.7031" rx="0.4375" stroke="#22379C" stroke-width="2.1875" mask="url(#path-1-inside-1_766_26079)"/>
<rect x="2.24219" y="5.90625" width="23.5156" height="1.09375" fill="#22379C"/>
<circle cx="4.10156" cy="4.04688" r="0.546875" fill="#22379C"/>
<circle cx="6.50781" cy="4.04688" r="0.546875" fill="#22379C"/>
<circle cx="8.91406" cy="4.04688" r="0.546875" fill="#22379C"/>
<g clip-path="url(#clip0_766_26079)">
<path d="M14.041 17.8281C14.9471 17.8281 15.6816 17.0936 15.6816 16.1875C15.6816 15.2814 14.9471 14.5469 14.041 14.5469C13.1349 14.5469 12.4004 15.2814 12.4004 16.1875C12.4004 17.0936 13.1349 17.8281 14.041 17.8281Z" stroke="#22379C" stroke-width="1.09375" stroke-linecap="round" stroke-linejoin="round"/>
<path d="M18.0879 17.8281C18.0151 17.9931 17.9934 18.176 18.0255 18.3534C18.0577 18.5309 18.1423 18.6946 18.2684 18.8234L18.3012 18.8562C18.4029 18.9578 18.4835 19.0785 18.5386 19.2112C18.5936 19.344 18.622 19.4863 18.622 19.6301C18.622 19.7738 18.5936 19.9161 18.5386 20.0489C18.4835 20.1817 18.4029 20.3023 18.3012 20.4039C18.1996 20.5056 18.079 20.5863 17.9462 20.6413C17.8134 20.6964 17.6711 20.7247 17.5273 20.7247C17.3836 20.7247 17.2413 20.6964 17.1085 20.6413C16.9757 20.5863 16.8551 20.5056 16.7535 20.4039L16.7207 20.3711C16.5918 20.245 16.4281 20.1604 16.2507 20.1283C16.0733 20.0961 15.8903 20.1178 15.7254 20.1906C15.5636 20.2599 15.4257 20.3751 15.3285 20.5218C15.2314 20.6685 15.1792 20.8404 15.1785 21.0164V21.1094C15.1785 21.3995 15.0633 21.6777 14.8582 21.8828C14.653 22.0879 14.3748 22.2031 14.0848 22.2031C13.7947 22.2031 13.5165 22.0879 13.3114 21.8828C13.1062 21.6777 12.991 21.3995 12.991 21.1094V21.0602C12.9868 20.8791 12.9282 20.7036 12.8229 20.5563C12.7175 20.4091 12.5703 20.2969 12.4004 20.2344C12.2354 20.1616 12.0525 20.1399 11.8751 20.172C11.6977 20.2042 11.534 20.2888 11.4051 20.4148L11.3723 20.4477C11.2707 20.5493 11.1501 20.63 11.0173 20.6851C10.8845 20.7401 10.7422 20.7684 10.5984 20.7684C10.4547 20.7684 10.3124 20.7401 10.1796 20.6851C10.0468 20.63 9.92619 20.5493 9.82461 20.4477C9.72292 20.3461 9.64224 20.2254 9.5872 20.0927C9.53216 19.9599 9.50383 19.8176 9.50383 19.6738C9.50383 19.5301 9.53216 19.3878 9.5872 19.255C9.64224 19.1222 9.72292 19.0016 9.82461 18.9L9.85742 18.8672C9.9835 18.7383 10.0681 18.5746 10.1002 18.3972C10.1324 18.2198 10.1107 18.0368 10.0379 17.8719C9.96857 17.7101 9.85346 17.5722 9.70674 17.475C9.56002 17.3778 9.38809 17.3257 9.21211 17.325H9.11914C8.82906 17.325 8.55086 17.2098 8.34574 17.0046C8.14062 16.7995 8.02539 16.5213 8.02539 16.2312C8.02539 15.9412 8.14062 15.663 8.34574 15.4579C8.55086 15.2527 8.82906 15.1375 9.11914 15.1375H9.16836C9.34937 15.1333 9.52492 15.0747 9.67219 14.9693C9.81947 14.864 9.93164 14.7168 9.99414 14.5469C10.0669 14.3819 10.0887 14.199 10.0565 14.0216C10.0243 13.8441 9.93975 13.6804 9.81367 13.5516L9.78086 13.5187C9.67917 13.4172 9.59849 13.2965 9.54345 13.1638C9.48841 13.031 9.46008 12.8887 9.46008 12.7449C9.46008 12.6012 9.48841 12.4589 9.54345 12.3261C9.59849 12.1933 9.67917 12.0727 9.78086 11.9711C9.88244 11.8694 10.0031 11.7887 10.1358 11.7337C10.2686 11.6786 10.411 11.6503 10.5547 11.6503C10.6984 11.6503 10.8407 11.6786 10.9735 11.7337C11.1063 11.7887 11.2269 11.8694 11.3285 11.9711L11.3613 12.0039C11.4902 12.13 11.6539 12.2146 11.8313 12.2467C12.0087 12.2789 12.1917 12.2572 12.3566 12.1844H12.4004C12.5621 12.1151 12.7001 11.9999 12.7973 11.8532C12.8944 11.7065 12.9466 11.5346 12.9473 11.3586V11.2656C12.9473 10.9755 13.0625 10.6973 13.2676 10.4922C13.4727 10.2871 13.7509 10.1719 14.041 10.1719C14.3311 10.1719 14.6093 10.2871 14.8144 10.4922C15.0195 10.6973 15.1348 10.9755 15.1348 11.2656V11.3148C15.1355 11.4908 15.1876 11.6628 15.2848 11.8095C15.3819 11.9562 15.5199 12.0713 15.6816 12.1406C15.8466 12.2134 16.0296 12.2351 16.207 12.203C16.3844 12.1708 16.5481 12.0862 16.677 11.9602L16.7098 11.9273C16.8113 11.8257 16.932 11.745 17.0648 11.6899C17.1975 11.6349 17.3399 11.6066 17.4836 11.6066C17.6273 11.6066 17.7697 11.6349 17.9024 11.6899C18.0352 11.745 18.1558 11.8257 18.2574 11.9273C18.3591 12.0289 18.4398 12.1496 18.4948 12.2823C18.5499 12.4151 18.5782 12.5574 18.5782 12.7012C18.5782 12.8449 18.5499 12.9872 18.4948 13.12C18.4398 13.2528 18.3591 13.3734 18.2574 13.475L18.2246 13.5078C18.0985 13.6367 18.014 13.8004 17.9818 13.9778C17.9496 14.1552 17.9713 14.3382 18.0441 14.5031V14.5469C18.1135 14.7086 18.2286 14.8466 18.3753 14.9437C18.522 15.0409 18.6939 15.093 18.8699 15.0938H18.9629C19.253 15.0938 19.5312 15.209 19.7363 15.4141C19.9414 15.6192 20.0566 15.8974 20.0566 16.1875C20.0566 16.4776 19.9414 16.7558 19.7363 16.9609C19.5312 17.166 19.253 17.2812 18.9629 17.2812H18.9137C18.7377 17.282 18.5658 17.3341 18.419 17.4313C18.2723 17.5284 18.1572 17.6664 18.0879 17.8281V17.8281Z" stroke="#22379C" stroke-width="1.09375" stroke-linecap="round" stroke-linejoin="round"/>
</g>
<defs>
<clipPath id="clip0_766_26079">
<rect width="13.125" height="13.125" fill="white" transform="translate(7.47852 9.625)"/>
</clipPath>
</defs>
</svg>
