<svg xmlns="http://www.w3.org/2000/svg" width="178" height="121" fill="none" xmlns:v="https://vecta.io/nano"><path d="M22.318 87.245c15.905-2.477 30.028-13.831 36.12-28.691 1.28-3.124 2.181-6.355 2.782-9.643l-.36-.104a50.5 50.5 0 0 1-1.636 6.551c-2.482 7.632-7.075 14.485-13.006 19.87-5.89 5.348-13.111 9.262-20.873 11.063-8.044 1.866-16.539 1.34-24.379-1.19-.069-.022-.138-.048-.207-.071l-.067.357c6.939 2.271 14.382 2.986 21.627 1.858zm25.835 10.738c11.872 1.588 24.069 2.436 35.8-.568 5.322-1.362 10.462-3.528 14.968-6.694 4.525-3.178 8.271-7.332 11.24-11.979 2.375-3.716 4.228-7.669 5.717-11.765l-.393.04c-1.017 2.769-2.204 5.478-3.616 8.1-2.738 5.082-6.282 9.767-10.739 13.465-4.394 3.645-9.588 6.213-15.037 7.861-11.512 3.481-23.703 2.964-35.497 1.495-12.902-1.608-25.815-4.33-38.881-3.748-3.905.174-7.855.639-11.715 1.484l.015.378c3.148-.698 6.356-1.142 9.55-1.374 12.952-.942 25.808 1.597 38.589 3.305zm116.19 8.528c-4.563-1.001-9.064-2.396-13.228-4.539-3.879-1.997-7.535-4.658-10.125-8.213-2.662-3.654-3.934-8.084-3.536-12.595.728-8.286 6.13-14.908 13.112-18.847l-.537-.093c-5.861 3.386-10.532 8.573-12.319 15.392-1.139 4.349-.877 8.964 1.032 13.058 1.83 3.926 4.977 7.07 8.537 9.464 3.758 2.526 8.007 4.297 12.345 5.551 5.207 1.506 10.586 2.422 15.993 2.768l1.301.065.08-.359a75.11 75.11 0 0 1-12.655-1.651zm-94.94-48.357a51.43 51.43 0 0 1 2.755-5.066l-.334-.152-2.033 3.607a51.35 51.35 0 0 0-3.749 9.595c-1.006 3.621-1.855 7.6-.926 11.326.718 2.877 2.603 5.564 5.467 6.598 3.241 1.171 6.76-.044 9.629-1.634 3.127-1.732 5.99-4.045 8.699-6.364a81.76 81.76 0 0 0 7.693-7.516 82.07 82.07 0 0 0 2.808-3.303l-.385-.116c-4.381 5.416-9.444 10.278-15.072 14.404-2.885 2.116-6.136 4.256-9.791 4.595-3.633.337-6.671-1.753-8.109-5.024-1.594-3.627-.945-7.759-.03-11.471.805-3.262 1.941-6.444 3.377-9.48zm97.561 38.894c3.753.2 7.521-.732 10.961-2.369l-.026-.328c-2.851 1.35-5.934 2.182-9.145 2.337-3.599.174-7.276-.769-9.958-3.272-2.418-2.258-3.63-5.541-2.703-8.787.409-1.44 1.222-2.79 2.393-3.738 1.522-1.231 3.482-1.545 5.383-1.603 1.713-.052 3.432.071 5.137-.148 1.244-.159 2.459-.5 3.61-.992l-.192-.311a13.53 13.53 0 0 1-1.148.429c-3.513 1.123-7.272.034-10.756 1.147-2.722.869-4.534 3.306-4.994 6.079-.481 2.902.609 5.734 2.639 7.813 2.316 2.371 5.526 3.569 8.799 3.743zm-34.56 11.966l-4.885-11.632c-1.139-2.712-2.338-5.67-4.794-7.467-2.596-1.896-6.126-1.896-9.024-.736-3.081 1.233-5.527 3.624-7.615 6.133-4.16 4.997-7.143 10.933-8.8 17.214a45.97 45.97 0 0 0-1.386 8.216h.372c.627-8.114 3.427-16.058 8.169-22.708 1.94-2.719 4.199-5.42 7.016-7.267 2.894-1.898 6.764-2.812 10.001-1.201 2.956 1.472 4.359 4.698 5.572 7.58l4.536 10.802 5.372 12.794h.389l-4.923-11.728z" fill="#fff"/><path d="M104.209 60.7c-3.915 0-7.748-.352-11.257-1 1.205-2.735 1.978-5.708 2.227-8.839l2.536-31.689c3.719.976 7.149 1.24 10.518 1.24.804 0 1.604-.015 2.403-.039 3.154-.095 6.306-.328 9.644-.328 2.017 0 4.101.085 6.296.339 8.256.953 12.847 4.97 13.412 13.603 1.283 19.539-18.097 26.715-35.779 26.715z" fill="#f0f6ff"/><path d="M148.294 6.913c-2.28-.79-3.839-2.159-5.595-4.166l.743-1.584c1.844 2.442 2.449 3.765 4.755 3.574l.097 2.176z" fill="#ffb900"/><path d="M174.474 41.997c-1.696-2.206-2.454-4.471-3.082-7.446l1.447-.959c.497 3.43.406 5.029 2.601 6.358l-.966 2.048z" fill="#007bff"/><path d="M117.655 12.871c-2.401.597-4.399.254-6.846-.552l-.005-1.86c2.714 1.149 3.827 1.998 5.832.5l1.019 1.912z" fill="#14cca1"/><path d="M55.932 5.303c-1.135 1.613-2.41 2.476-4.126 3.315l-.736-1.059c2.003-.783 2.972-.889 3.526-2.807l1.336.551z" fill="#ff5c33"/><path d="M16.438 52.274c-2.697.136-4.716-.61-7.09-1.919l.489-1.905c2.564 1.713 3.515 2.802 6.031 1.666l.57 2.158zm17.231-29.731c-2.332 1.628-4.531 2.101-7.348 2.278l-.582-1.948c3.202.072 4.632.498 6.268-1.909l1.662 1.579z" fill="#007bff"/><path d="M60.317 57.499c-.419-.25-.808-.515-1.172-.799l.539-1.594c.261.09.553.157.884.2l-.251 2.194zm-1.471-1.041c-1.352-1.132-2.373-2.539-3.448-4.327l.997-1.422c1.151 2.252 1.634 3.631 2.95 4.257l-.125.391-.374 1.1z" fill="#fd7555"/><path d="M59.146 56.7l-.3-.242.374-1.1.125-.391c.108.051.22.097.34.139l-.539 1.594z" fill="#f75"/><path d="M131.447 38.227c-.855 2.666-2.177 4.432-4.077 6.39l-1.355-.995c2.293-2.034 3.507-2.664 3.495-5.426l1.937.031zm8.2-16.535c0 .5-.406.906-.906.906s-.905-.405-.905-.905.405-.905.905-.905.906.405.906.905z" fill="#ff5c33"/><path d="M45.491 30.867c0 .5-.406.905-.905.905s-.905-.406-.905-.905.406-.905.905-.905.905.406.905.905z" fill="#14cca1"/><path d="M5.118 22.93l-1.811 1.811-1.811-1.811 1.811-1.811 1.811 1.811z" fill="#ffb900"/><path d="M162.362 19.962l-1.811 1.811-1.811-1.811 1.811-1.811 1.811 1.811z" fill="#14cca1"/><g fill="#919bce"><path d="M98.144 84.472l-15.254.019-.005-3.563a2.28 2.28 0 0 1 2.275-2.281l10.698-.013a2.28 2.28 0 0 1 2.28 2.275l.005 3.562z"/><path d="M95.445 80.678h-9.869V63.204h9.869v17.474z"/></g><path d="M85.576 70.755v-7.552h9.869l-.01 3.668-9.859 3.884z" fill="#7a87c4"/><path d="M107.479 49.727l-.629-2.081c11.556-3.497 16.455-10.726 14.978-22.098-.016-.017-.138-.088-.288-.047l-1.591.431c-.637.172-1.064.649-1.064 1.186v2.465c0 1.495-1.262 2.691-2.873 2.722l-4.894.086v-2.173c.26 0 2.073-.032 4.852-.085.402-.008.741-.259.741-.549v-2.465c0-1.532 1.073-2.851 2.671-3.283l1.591-.431a2.49 2.49 0 0 1 2.036.326c.539.36.893.92.975 1.538.775 5.979-.095 11.024-2.588 14.996-2.698 4.301-7.381 7.484-13.917 9.463zm-33.957.001c-6.536-1.978-11.219-5.162-13.917-9.463-2.493-3.972-3.364-9.018-2.588-14.996a2.2 2.2 0 0 1 .975-1.538 2.49 2.49 0 0 1 2.036-.326l1.591.43c1.597.432 2.67 1.752 2.67 3.284v2.464c0 .291.34.542.742.55l4.852.086v2.173a816.57 816.57 0 0 1-4.894-.086c-1.611-.031-2.873-1.227-2.873-2.722v-2.463c0-.538-.428-1.014-1.065-1.186l-1.591-.43c-.151-.042-.273.03-.294.064-1.471 11.355 3.429 18.583 14.984 22.081l-.629 2.081z" fill="#22379c"/><path d="M112.229 25.768l-2.361 29.487a12.59 12.59 0 0 1-4.567 8.739c-2.184 1.796-4.98 2.868-8.011 2.868H83.72c-6.577 0-12.05-5.052-12.575-11.607l-1.224-15.301-1.137-14.185a3.82 3.82 0 0 1 3.806-4.122h35.831a3.82 3.82 0 0 1 3.807 4.122z" fill="#919bce"/><path d="M105.3 63.994c-2.184 1.796-4.979 2.868-8.011 2.868H83.72c-6.577 0-12.049-5.052-12.574-11.607l-1.224-15.302c8.594 10.862 22.297 20.18 35.378 24.04z" fill="#7a87c4"/><path d="M97.864 67.043H83.725v-.362h14.139v.362zM87.782 78.829h-2.628v-.362h2.628v.362zm8.152.001h-2.628v-.362h2.628v.362z" fill="#22379c"/><path d="M101.692 93.098l-22.358.027-.007-5.907a3.99 3.99 0 0 1 3.983-3.994l14.381-.017a3.99 3.99 0 0 1 3.994 3.984l.007 5.907z" fill="#919bce"/><path d="M98.129 83.44H82.896v-.362h15.234v.362z" fill="#22379c"/><path d="M100.142 30.477h3.983v7.787h-3.983" fill="#7a87c4"/><g fill="#fff"><path d="M145.388 120.8H35.708v-9.323h109.68v9.323z"/><path d="M127.26 111.476H53.828v-9.323h73.432v9.323z"/><path d="M114.557 102.152H66.526v-9.323h48.031v9.323z"/></g><g fill="#384ba6"><path d="M117.56 111.478v9.322H63.526v-9.322h54.034z"/><path d="M109.785 102.153v9.325H71.31v-9.325h38.475z"/><path d="M101.803 92.831v9.322H79.284v-9.322h22.519z"/></g><path d="M66.534 102.148h12.755v-2.172H66.534v2.172zm48.022 0h-12.755v-2.173h12.755v2.173z" fill="#e9ebf5"/><path d="M101.803 102.148H79.284v-2.172h22.519v2.172z" fill="#22379c"/><path d="M53.83 111.462h17.477v-2.173H53.83v2.173zm73.428.001H109.78v-2.173h17.478v2.173z" fill="#e9ebf5"/><path d="M109.785 111.463H71.31v-2.173h38.475v2.173z" fill="#22379c"/><path d="M35.705 120.8h.001v-.057h-.001v.057z" fill="#e5ebf2"/><path d="M35.705 120.742h.001v-2.115h-.001v2.115z" fill="#d8e3f2"/><path d="M63.529 120.8H35.705v-2.173h27.823v2.173z" fill="#e9ebf5"/><path d="M145.388 120.799h-.001v-.056h.001v.056z" fill="#e5ebf2"/><path d="M145.388 120.742h-.001v-2.115h.001v2.115z" fill="#d8e3f2"/><path d="M145.387 120.8h-27.824v-2.173h27.824v2.115.058z" fill="#e9ebf5"/><path d="M117.56 120.8H63.526v-2.173h54.034v2.173zm-81.674 0h-.362v-9.505l18.125-.014v-9.309l12.702-.005-.001-9.318h12.848v.362H66.71l.001 9.318-12.702.005.001 9.31-18.125.013v9.143zm109.685 0h-.362v-9.142l-18.126-.014.002-9.309-12.702-.006v-9.318H101.69v-.362h13.056l-.001 9.318 12.701.006-.001 9.309 18.126.013v9.505z" fill="#22379c"/><path d="M85.074 1.302c-.127.266-.04.572.193.683s.524-.015.65-.282.041-.571-.192-.682-.524.014-.651.281z" fill="#ffba9a"/></svg>