<svg width="26" height="28" viewBox="0 0 26 28" fill="none" xmlns="http://www.w3.org/2000/svg"><mask id="path-1-inside-1_1185_17821" fill="white"><path d="M24.5122 11.2986C24.8135 11.278 25.0423 11.0168 25.0081 10.7167C24.6845 7.87805 23.3643 5.23889 21.2729 3.27516C19.0483 1.18639 16.1159 0.0164372 13.0644 0.000171695C10.0129 -0.0160938 7.06827 1.12253 4.82154 3.18747C2.70931 5.12879 1.36098 7.75372 1.00714 10.5888C0.969737 10.8885 1.19578 11.1521 1.49686 11.1759C1.79794 11.1998 2.05992 10.9747 2.09867 10.6752C2.42985 8.11547 3.65276 5.74716 5.56165 3.99274C7.60506 2.11466 10.2833 1.07908 13.0586 1.09387C15.8339 1.10866 18.5009 2.17274 20.5242 4.07249C22.4143 5.84717 23.6119 8.22838 23.9157 10.7915C23.9513 11.0914 24.2109 11.3192 24.5122 11.2986Z"/></mask><path d="M24.5122 11.2986C24.8135 11.278 25.0423 11.0168 25.0081 10.7167C24.6845 7.87805 23.3643 5.23889 21.2729 3.27516C19.0483 1.18639 16.1159 0.0164372 13.0644 0.000171695C10.0129 -0.0160938 7.06827 1.12253 4.82154 3.18747C2.70931 5.12879 1.36098 7.75372 1.00714 10.5888C0.969737 10.8885 1.19578 11.1521 1.49686 11.1759C1.79794 11.1998 2.05992 10.9747 2.09867 10.6752C2.42985 8.11547 3.65276 5.74716 5.56165 3.99274C7.60506 2.11466 10.2833 1.07908 13.0586 1.09387C15.8339 1.10866 18.5009 2.17274 20.5242 4.07249C22.4143 5.84717 23.6119 8.22838 23.9157 10.7915C23.9513 11.0914 24.2109 11.3192 24.5122 11.2986Z" stroke="#22379C" stroke-width="2.1875" mask="url(#path-1-inside-1_1185_17821)"/><mask id="path-2-inside-2_1185_17821" fill="white"><path d="M17.9256 4.96899C18.1013 4.72306 18.0451 4.37979 17.7889 4.2194C16.3375 3.31051 14.6537 2.83136 12.9337 2.84399C11.2137 2.85663 9.53712 3.36048 8.0992 4.2906C7.84547 4.45473 7.79432 4.79879 7.97352 5.04212C8.15273 5.28544 8.49434 5.33565 8.74945 5.17365C10.0004 4.37923 11.4526 3.94925 12.9417 3.93831C14.4309 3.92737 15.8892 4.33596 17.1517 5.11192C17.4092 5.27015 17.75 5.21493 17.9256 4.96899Z"/></mask><path d="M17.9256 4.96899C18.1013 4.72306 18.0451 4.37979 17.7889 4.2194C16.3375 3.31051 14.6537 2.83136 12.9337 2.84399C11.2137 2.85663 9.53712 3.36048 8.0992 4.2906C7.84547 4.45473 7.79432 4.79879 7.97352 5.04212C8.15273 5.28544 8.49434 5.33565 8.74945 5.17365C10.0004 4.37923 11.4526 3.94925 12.9417 3.93831C14.4309 3.92737 15.8892 4.33596 17.1517 5.11192C17.4092 5.27015 17.75 5.21493 17.9256 4.96899Z" stroke="#22379C" stroke-width="2.1875" mask="url(#path-2-inside-2_1185_17821)"/><mask id="path-3-inside-3_1185_17821" fill="white"><path d="M19.5078 15.832C19.5078 14.3068 20.7443 13.0703 22.2695 13.0703H24.375C24.7374 13.0703 25.0312 13.3641 25.0312 13.7266V22.3672H22.2695C20.7443 22.3672 19.5078 21.1307 19.5078 19.6055V15.832Z"/></mask><path d="M19.5078 15.832C19.5078 14.3068 20.7443 13.0703 22.2695 13.0703H24.375C24.7374 13.0703 25.0312 13.3641 25.0312 13.7266V22.3672H22.2695C20.7443 22.3672 19.5078 21.1307 19.5078 19.6055V15.832Z" stroke="#22379C" stroke-width="2.1875" mask="url(#path-3-inside-3_1185_17821)"/><mask id="path-4-inside-4_1185_17821" fill="white"><path d="M6.49219 15.832C6.49219 14.3068 5.25572 13.0703 3.73047 13.0703H1.625C1.26256 13.0703 0.96875 13.3641 0.96875 13.7266V19.6055C0.96875 21.1307 2.20521 22.3672 3.73047 22.3672C5.25572 22.3672 6.49219 21.1307 6.49219 19.6055V15.832Z"/></mask><path d="M6.49219 15.832C6.49219 14.3068 5.25572 13.0703 3.73047 13.0703H1.625C1.26256 13.0703 0.96875 13.3641 0.96875 13.7266V19.6055C0.96875 21.1307 2.20521 22.3672 3.73047 22.3672C5.25572 22.3672 6.49219 21.1307 6.49219 19.6055V15.832Z" stroke="#22379C" stroke-width="2.1875" mask="url(#path-4-inside-4_1185_17821)"/><mask id="path-5-inside-5_1185_17821" fill="white"><path d="M15.0781 21.2734H25.0312V23.7344C25.0312 25.0935 23.9295 26.1953 22.5703 26.1953H15.0781V21.2734Z"/></mask><path d="M15.0781 21.2734H25.0312H15.0781ZM26.125 23.7344C26.125 25.6976 24.5335 27.2891 22.5703 27.2891H15.0781V25.1016H22.5703C23.3254 25.1016 23.9375 24.4895 23.9375 23.7344L26.125 23.7344ZM15.0781 26.1953V21.2734V26.1953ZM26.125 21.2734V23.7344C26.125 25.6976 24.5335 27.2891 22.5703 27.2891L22.5703 25.1016C23.3254 25.1016 23.9375 24.4895 23.9375 23.7344V21.2734H26.125Z" fill="#22379C" mask="url(#path-5-inside-5_1185_17821)"/><circle cx="13" cy="25.2656" r="2.1875" stroke="#22379C" stroke-width="1.09375"/></svg>