<svg xmlns="http://www.w3.org/2000/svg" width="29" height="30" fill="none" ><path fill="#311c95" d="M9.21 0h10.526v29.999H9.21z"/><g fill-rule="evenodd"><path d="M28.946 20.795c-1.209 0-2.406.238-3.523.701s-2.131 1.141-2.986 1.995-1.533 1.87-1.995 2.986-.701 2.314-.701 3.523H9.21c0-2.592.51-5.158 1.502-7.553a19.73 19.73 0 0 1 1.539-2.973c.781-1.239 1.699-2.389 2.739-3.43s2.191-1.958 3.43-2.739c.943-.595 1.938-1.11 2.973-1.539 2.395-.992 4.961-1.502 7.553-1.502v10.531z" fill="#7ac5b6" fill-opacity=".9"/><path d="M0 9.205c1.209 0 2.406-.238 3.522-.701s2.131-1.141 2.986-1.995 1.533-1.869 1.995-2.986.701-2.314.701-3.522h10.531c0 2.592-.511 5.158-1.502 7.553-.429 1.035-.944 2.03-1.539 2.973a19.73 19.73 0 0 1-2.739 3.43 19.73 19.73 0 0 1-3.43 2.739c-.943.595-1.938 1.11-2.973 1.539-2.394.992-4.961 1.502-7.553 1.502V9.205z" fill="#5814db" fill-opacity=".9"/></g></svg>