<svg width="28" height="28" viewBox="0 0 28 28" fill="none" xmlns="http://www.w3.org/2000/svg">
<mask id="path-1-inside-1_766_26096" fill="white">
<path d="M24.949 11.3478C24.447 9.27548 23.3672 7.38814 21.835 5.90516C20.3029 4.42219 18.3813 3.40449 16.2937 2.97035L16.071 4.04128C17.9559 4.43327 19.6909 5.35215 21.0743 6.69114C22.4577 8.03012 23.4326 9.73421 23.8859 11.6054L24.949 11.3478Z"/>
</mask>
<path d="M24.949 11.3478C24.447 9.27548 23.3672 7.38814 21.835 5.90516C20.3029 4.42219 18.3813 3.40449 16.2937 2.97035L16.071 4.04128C17.9559 4.43327 19.6909 5.35215 21.0743 6.69114C22.4577 8.03012 23.4326 9.73421 23.8859 11.6054L24.949 11.3478Z" stroke="#22379C" stroke-width="2.1875" mask="url(#path-1-inside-1_766_26096)"/>
<mask id="path-2-inside-2_766_26096" fill="white">
<path d="M11.3478 3.05101C9.27548 3.553 7.38813 4.63281 5.90516 6.16496C4.42219 7.6971 3.40449 9.61865 2.97035 11.7063L4.04128 11.929C4.43327 10.0441 5.35215 8.30908 6.69114 6.9257C8.03012 5.54232 9.73421 4.56735 11.6054 4.11411L11.3478 3.05101Z"/>
</mask>
<path d="M11.3478 3.05101C9.27548 3.553 7.38813 4.63281 5.90516 6.16496C4.42219 7.6971 3.40449 9.61865 2.97035 11.7063L4.04128 11.929C4.43327 10.0441 5.35215 8.30908 6.69114 6.9257C8.03012 5.54232 9.73421 4.56735 11.6054 4.11411L11.3478 3.05101Z" stroke="#22379C" stroke-width="2.1875" mask="url(#path-2-inside-2_766_26096)"/>
<mask id="path-3-inside-3_766_26096" fill="white">
<path d="M3.05101 16.6522C3.553 18.7245 4.63281 20.6119 6.16496 22.0948C7.6971 23.5778 9.61865 24.5955 11.7063 25.0296L11.929 23.9587C10.0441 23.5667 8.30908 22.6478 6.9257 21.3089C5.54232 19.9699 4.56735 18.2658 4.11411 16.3946L3.05101 16.6522Z"/>
</mask>
<path d="M3.05101 16.6522C3.553 18.7245 4.63281 20.6119 6.16496 22.0948C7.6971 23.5778 9.61865 24.5955 11.7063 25.0296L11.929 23.9587C10.0441 23.5667 8.30908 22.6478 6.9257 21.3089C5.54232 19.9699 4.56735 18.2658 4.11411 16.3946L3.05101 16.6522Z" stroke="#22379C" stroke-width="2.1875" mask="url(#path-3-inside-3_766_26096)"/>
<mask id="path-4-inside-4_766_26096" fill="white">
<path d="M16.6522 24.949C18.7245 24.447 20.6119 23.3672 22.0948 21.835C23.5778 20.3029 24.5955 18.3813 25.0296 16.2937L23.9587 16.071C23.5667 17.9559 22.6478 19.6909 21.3089 21.0743C19.9699 22.4577 18.2658 23.4326 16.3946 23.8859L16.6522 24.949Z"/>
</mask>
<path d="M16.6522 24.949C18.7245 24.447 20.6119 23.3672 22.0948 21.835C23.5778 20.3029 24.5955 18.3813 25.0296 16.2937L23.9587 16.071C23.5667 17.9559 22.6478 19.6909 21.3089 21.0743C19.9699 22.4577 18.2658 23.4326 16.3946 23.8859L16.6522 24.949Z" stroke="#22379C" stroke-width="2.1875" mask="url(#path-4-inside-4_766_26096)"/>
<circle cx="14" cy="3.28125" r="2.1875" stroke="#22379C" stroke-width="1.09375"/>
<circle cx="3.28125" cy="14" r="2.1875" stroke="#22379C" stroke-width="1.09375"/>
<circle cx="24.7188" cy="14" r="2.1875" stroke="#22379C" stroke-width="1.09375"/>
<circle cx="14" cy="24.7188" r="2.1875" stroke="#22379C" stroke-width="1.09375"/>
<path d="M15.8047 11.375C15.8047 12.5456 14.9585 13.3984 14.0273 13.3984C13.0962 13.3984 12.25 12.5456 12.25 11.375C12.25 10.2044 13.0962 9.35156 14.0273 9.35156C14.9585 9.35156 15.8047 10.2044 15.8047 11.375Z" stroke="#22379C" stroke-width="1.09375"/>
<path d="M18.8672 15.5312V17.9648C18.8672 18.0857 18.7692 18.1836 18.6484 18.1836H9.51562C9.39481 18.1836 9.29688 18.0857 9.29688 17.9648V15.6947C9.29688 15.5978 9.36068 15.5124 9.45364 15.4849L12.7495 14.5112C12.8424 14.4837 12.9062 14.3983 12.9062 14.3014V13.125" stroke="#22379C" stroke-width="1.09375"/>
<path d="M9.29688 15.5312V17.9648C9.29688 18.0857 9.39481 18.1836 9.51562 18.1836H18.6484C18.7692 18.1836 18.8672 18.0857 18.8672 17.9648V15.6958C18.8672 15.5983 18.8028 15.5126 18.7091 15.4856L15.3338 14.5105C15.2402 14.4835 15.1758 14.3978 15.1758 14.3003V13.125" stroke="#22379C" stroke-width="1.09375"/>
</svg>
