<svg width="28" height="25" viewBox="0 0 28 25" fill="none" xmlns="http://www.w3.org/2000/svg"><rect x="0.546875" y="1.35156" width="26.9062" height="19.9062" rx="1.96875" stroke="#22379C" stroke-width="1.09375"/><rect x="13.4531" y="21.8047" width="1.09375" height="1.85938" fill="#22379C"/><rect x="8.80469" y="23.6641" width="10.3906" height="1.09375" rx="0.546875" fill="#22379C"/><rect x="1.09375" y="16.8828" width="25.8125" height="1.09375" fill="#22379C"/><path d="M5.79688 6.16406C5.79688 4.95594 6.77625 3.97656 7.98438 3.97656H14.7109C15.9191 3.97656 16.8984 4.95594 16.8984 6.16406V9.39062C16.8984 10.5987 15.9191 11.5781 14.7109 11.5781H11.3477H9.30009C8.84176 11.5781 8.3919 11.7016 7.9978 11.9356L6.75768 12.6719C6.33368 12.9237 5.79688 12.6181 5.79688 12.125V6.16406Z" stroke="#22379C" stroke-width="1.09375"/><path d="M17.4453 7.01172H19.5234C20.7316 7.01172 21.7109 7.9911 21.7109 9.19922V14.6686C21.7109 14.9676 21.3834 15.1512 21.1284 14.9952L19.3867 13.9297H13.3164C12.3348 13.9297 11.5391 13.1339 11.5391 12.1523V12.1523" stroke="#22379C" stroke-width="1.09375"/><circle cx="8.75" cy="7.75" r="0.546875" fill="#22379C"/><circle cx="11.375" cy="7.75" r="0.546875" fill="#22379C"/><circle cx="14" cy="7.75" r="0.546875" fill="#22379C"/><circle cx="19.3047" cy="10.4297" r="0.546875" fill="#22379C"/></svg>
