<svg width="28" height="27" viewBox="0 0 28 27" fill="none" xmlns="http://www.w3.org/2000/svg"><path d="M14.2452 2.55284L15.3278 4.74635C15.5269 5.14987 15.9119 5.42955 16.3572 5.49426L18.7779 5.84601C19.0021 5.8786 19.0917 6.15422 18.9294 6.31241L17.1778 8.01982C16.8556 8.33392 16.7085 8.78646 16.7846 9.22996L17.1981 11.6409C17.2364 11.8642 17.0019 12.0346 16.8013 11.9291L14.6362 10.7908C14.2379 10.5815 13.7621 10.5815 13.3638 10.7908L11.1987 11.9291C10.9981 12.0346 10.7636 11.8642 10.8019 11.6409L11.2154 9.22997C11.2915 8.78646 11.1444 8.33392 10.8222 8.01982L9.07059 6.31241C8.9083 6.15422 8.99786 5.8786 9.22214 5.84601L11.6428 5.49426C12.0881 5.42955 12.4731 5.14987 12.6722 4.74635L13.7548 2.55284C13.8551 2.34961 14.1449 2.34961 14.2452 2.55284Z" stroke="#22379C" stroke-width="1.09375"/><path d="M7.29989 14.1466L8.38245 16.3401C8.5816 16.7436 8.96655 17.0233 9.41186 17.088L11.8326 17.4398C12.0568 17.4723 12.1464 17.748 11.9841 17.9062L10.2325 19.6136C9.91024 19.9277 9.7632 20.3802 9.83927 20.8237L10.2528 23.2346C10.2911 23.458 10.0566 23.6283 9.85603 23.5229L7.6909 22.3846C7.2926 22.1752 6.81677 22.1752 6.41848 22.3846L4.25335 23.5229C4.05275 23.6283 3.81829 23.458 3.8566 23.2346L4.27011 20.8237C4.34617 20.3802 4.19914 19.9277 3.87691 19.6136L2.12528 17.9062C1.96299 17.748 2.05255 17.4723 2.27682 17.4398L4.69751 17.088C5.14282 17.0233 5.52777 16.7436 5.72692 16.3401L6.80949 14.1466C6.90979 13.9434 7.19959 13.9434 7.29989 14.1466Z" stroke="#22379C" stroke-width="1.09375"/><path d="M21.1905 14.1466L22.2731 16.3401C22.4722 16.7436 22.8572 17.0233 23.3025 17.088L25.7232 17.4398C25.9475 17.4723 26.037 17.748 25.8747 17.9062L24.1231 19.6136C23.8009 19.9277 23.6538 20.3802 23.7299 20.8237L24.1434 23.2346C24.1817 23.458 23.9473 23.6283 23.7467 23.5229L21.5815 22.3846C21.1832 22.1752 20.7074 22.1752 20.3091 22.3846L18.144 23.5229C17.9434 23.6283 17.7089 23.458 17.7472 23.2346L18.1607 20.8237C18.2368 20.3802 18.0898 19.9277 17.7675 19.6136L16.0159 17.9062C15.8536 17.748 15.9432 17.4723 16.1674 17.4398L18.5881 17.088C19.0334 17.0233 19.4184 16.7436 19.6175 16.3401L20.7001 14.1466C20.8004 13.9434 21.0902 13.9434 21.1905 14.1466Z" stroke="#22379C" stroke-width="1.09375"/></svg>