<svg xmlns="http://www.w3.org/2000/svg" width="32" height="32" fill="none" ><path d="M26.122 9.393v12.374H4.467V9.393h21.655z" fill="#ffea00"/><g stroke="#fffd00"><path d="M20.902 10.861l-4.64 12.684" stroke-width="3.048"/><path d="M11.873 10.861l-4.64 12.684" stroke-width="1.041"/><path d="M21.16 10.861l-4.64 12.684" stroke-width=".181"/></g><path d="M24.885 18.982v4.331H5.705v-4.331h19.18z" fill="#ffc800"/><path d="M27.909 6.809l-9.864-5.695a4.04 4.04 0 0 0-4.039 0L4.142 6.809a4.04 4.04 0 0 0-2.019 3.497v11.39a4.04 4.04 0 0 0 2.019 3.497l9.864 5.695a4.04 4.04 0 0 0 4.039 0l9.864-5.695a4.04 4.04 0 0 0 2.019-3.497v-11.39a4.04 4.04 0 0 0-2.019-3.497zm-3.794 8.322l-.639 3.815-.173 1.045-.164.993c-.032.199-.205.347-.408.347H8.691c-.202 0-.373-.148-.408-.347l-.06-.364-.104-.63-.168-1.013-.006-.032-.638-3.815c-.852-.075-1.508-.791-1.508-1.646a1.65 1.65 0 1 1 3.304 0c0 .173-.026.344-.081.508l.623.396.711.453.006.003a2.06 2.06 0 0 0 1.958.141c.286-.13.54-.32.748-.574l1.314-1.606c-.211-.283-.323-.624-.323-.973a1.65 1.65 0 1 1 3.304 0c0 .349-.113.69-.32.973l.531.65.78.956c.393.479.962.739 1.542.754a2.04 2.04 0 0 0 1.167-.32l1.149-.728.185-.118-.054-.237c-.015-.092-.024-.185-.024-.277a1.65 1.65 0 0 1 .595-1.271 1.63 1.63 0 0 1 1.02-.378c.012-.003.026-.003.037-.003a1.65 1.65 0 0 1 1.644 1.504c.081.907-.589 1.71-1.499 1.793z" fill="url(#A)"/><path d="M16.695 12.126a1.03 1.03 0 0 0-1.75-.993m9.999 2.611a1.04 1.04 0 0 0 .032-.258 1.03 1.03 0 0 0-1.767-.722m-15.041.062c-.181-.218-.45-.36-.752-.371" stroke="#fff" stroke-width=".557" stroke-linecap="round" stroke-linejoin="round"/><defs><radialGradient id="A" cx="0" cy="0" r="1" gradientUnits="userSpaceOnUse" gradientTransform="translate(16.0256 16.0008) scale(11.9567)"><stop stop-color="#e68816"/><stop offset=".5" stop-color="#f3ab17"/><stop offset="1" stop-color="#ffcd19"/></radialGradient></defs></svg>