<svg xmlns="http://www.w3.org/2000/svg" width="20" height="20" fill="none" ><rect x=".391" y="1.055" width="19.219" height="17.891" rx=".547" stroke="#22379c" stroke-width=".781"/><g fill="#22379c"><circle cx="1.68" cy="2.344" r=".391"/><circle cx="3.008" cy="2.344" r=".391"/><circle cx="4.336" cy="2.344" r=".391"/><rect x="14.336" y="1.953" width="4.336" height=".781" rx=".391"/><rect x="13.008" y="4.961" width="3.672" height=".781" rx=".391"/><rect x="3.32" y="4.961" width="3.672" height=".781" rx=".391"/><rect x="1.328" y="4.961" width="1.328" height=".781" rx=".391"/><rect x="17.344" y="4.961" width="1.328" height=".781" rx=".391"/><rect x="15.313" y="6.25" width="3.359" height=".781" rx=".391"/><rect x="1.328" y="6.25" width="3.359" height=".781" rx=".391"/><path d="M.742 3.32h18.477v.781H.742z"/></g><g clip-path="url(#A)" stroke="#22379c" stroke-width=".781" stroke-linecap="round" stroke-linejoin="round"><path d="M4.575 8.262v3.018h3.018m8.047 5.029v-3.018h-3.018"/><path d="M14.377 10.776c-.255-.721-.689-1.365-1.26-1.873s-1.262-.863-2.008-1.032-1.522-.146-2.257.067-1.403.607-1.944 1.148l-2.334 2.193m11.064 2.012l-2.334 2.193a4.53 4.53 0 0 1-1.944 1.148c-.734.212-1.511.235-2.257.067s-1.437-.524-2.008-1.032-1.005-1.152-1.26-1.873"/></g><defs><clipPath id="A"><path fill="#fff" transform="translate(4.073 6.25)" d="M0 0h12.07v12.07H0z"/></clipPath></defs></svg>