<svg xmlns="http://www.w3.org/2000/svg" width="20" height="18" fill="none" ><mask id="A" fill="#fff"><rect y=".25" width="20" height="14.648" rx=".391"/></mask><rect y=".25" width="20" height="14.648" rx=".391" stroke="#23389c" stroke-width="1.563" mask="url(#A)"/><g fill="#23389c"><path d="M.781 11.383h18.438v.781H.781z"/><rect x="4.531" y="16.969" width="10.938" height=".781" rx=".391"/></g><path d="M7.441 17.164c.13-.488.336-1.668.117-2.481m4.921 2.481c-.13-.488-.336-1.668-.117-2.481" stroke="#23389c" stroke-width=".781"/><g clip-path="url(#B)" stroke="#23389c" stroke-width=".781" stroke-linejoin="round"><path d="M10 7.271c.577 0 1.045-.468 1.045-1.045S10.577 5.182 10 5.182s-1.045.468-1.045 1.045S9.423 7.271 10 7.271z"/><path d="M12.577 7.271c-.046.105-.06.222-.04.335s.074.217.155.299l.021.021c.065.065.116.142.151.226s.053.175.053.267-.018.182-.053.267-.086.161-.151.226-.142.116-.226.151-.175.053-.267.053-.182-.018-.267-.053-.161-.086-.226-.151l-.021-.021c-.082-.08-.186-.134-.299-.155s-.229-.007-.335.04-.191.117-.253.211-.095.203-.096.315v.059c0 .185-.073.362-.204.493s-.308.204-.493.204-.362-.073-.493-.204-.204-.308-.204-.493V9.33c-.003-.115-.04-.227-.107-.321s-.161-.165-.269-.205c-.105-.046-.222-.06-.335-.04s-.217.074-.299.155l-.021.021c-.065.065-.142.116-.226.151s-.175.053-.267.053-.182-.018-.267-.053-.161-.086-.226-.151-.116-.142-.151-.226-.053-.175-.053-.267.018-.182.053-.267.086-.161.151-.226l.021-.021c.08-.082.134-.186.155-.299s.007-.23-.04-.335-.117-.191-.211-.253-.203-.095-.315-.096h-.059c-.185 0-.362-.073-.493-.204s-.204-.308-.204-.493.073-.362.204-.493.308-.204.493-.204h.031c.115-.003.227-.04.321-.107s.165-.161.205-.269c.046-.105.06-.222.04-.335s-.074-.217-.155-.299l-.021-.021c-.065-.065-.116-.142-.151-.226s-.053-.175-.053-.267.018-.182.053-.267.086-.161.151-.226.142-.116.226-.151.175-.053.267-.053.182.018.267.053.161.086.226.151l.021.021c.082.08.186.134.299.155s.23.007.335-.04h.028c.103-.044.191-.117.253-.211s.095-.203.096-.315v-.059c0-.185.073-.362.204-.493s.308-.204.493-.204.362.073.493.204.204.308.204.493v.031c.001.112.034.222.096.315s.15.167.253.211.222.06.335.04.217-.074.299-.155l.021-.021c.065-.065.142-.116.226-.151s.175-.053.267-.053.182.018.267.053.161.086.226.151a.7.7 0 0 1 .204.493.7.7 0 0 1-.204.493l-.021.021c-.08.082-.134.186-.155.299s-.007.23.04.335v.028c.044.103.117.191.211.253s.203.095.315.096h.059c.185 0 .362.073.493.204s.204.308.204.493-.073.362-.204.493-.308.204-.493.204h-.031c-.112 0-.222.034-.315.096s-.167.15-.211.253h0z"/></g><defs><clipPath id="B"><path fill="#fff" transform="translate(5.82 2.047)" d="M0 0h8.359v8.359H0z"/></clipPath></defs></svg>