<svg xmlns="http://www.w3.org/2000/svg" width="20" height="20" fill="none" stroke="#22379c" stroke-width=".781" ><circle cx="10.156" cy="6.953" r="3.32"/><path d="M15.258 17.916l.289-.078v-.299-2.949a4.28 4.28 0 0 0-4.277-4.277H9.043a4.28 4.28 0 0 0-4.277 4.277v2.949.299l.289.078 1.442.389a14.06 14.06 0 0 0 7.319 0l1.442-.389z"/><path d="M15.43 14.336l.421.074a6.25 6.25 0 0 0 3.663-.461l.095-.043v-2.949a3.89 3.89 0 0 0-3.887-3.887H13.73m-8.847 7.266l-.607.107a6.25 6.25 0 0 1-3.344-.327l-.542-.21v-2.949A3.89 3.89 0 0 1 4.277 7.07h2.305"/><circle cx="15.352" cy="3.984" r="2.539"/><circle r="2.539" transform="matrix(-1 0 0 1 4.96094 3.98438)"/></svg>