<svg xmlns="http://www.w3.org/2000/svg" width="20" height="20" fill="none" ><mask id="A" fill="#fff"><rect x=".391" y=".625" width="17.305" height="13.867" rx=".313"/></mask><rect x=".391" y=".625" width="17.305" height="13.867" rx=".313" stroke="#22379c" stroke-width="1.563" mask="url(#A)"/><g fill="#22379c"><rect x="1.953" y="2.969" width="1.953" height=".781" rx=".078"/><rect x="1.953" y="8.203" width=".781" height=".781" rx=".078"/><rect x="14.453" y="8.203" width="1.484" height=".781" rx=".078"/><rect x="12.813" y="2.969" width="1.758" height=".781" rx=".078"/><rect x="14.688" y="2.969" width="1.25" height=".781" rx=".078"/><path d="M1.094 10.313h3.438v.781H1.094zm12.304 0h3.672v.781h-3.672z"/></g><circle cx="8.398" cy="7.344" r="5.039" stroke="#22379c" stroke-width=".781"/><mask id="B" fill="#fff"><rect x="3.516" y="16.641" width="11.055" height="2.695" rx=".313"/></mask><g stroke="#22379c"><rect x="3.516" y="16.641" width="11.055" height="2.695" rx=".313" stroke-width="1.563" mask="url(#B)"/><g stroke-width=".781"><path d="M6.719 14.395c.026.436-.141 1.68-.547 2.461m5.12-2.461c-.026.436.141 1.68.547 2.461"/><rect x="11.98" y="13.254" width="3.233" height="6.72" rx="1.617" transform="rotate(314.286 11.98 13.254)"/></g></g><path d="M11.611 11.484l1.23 1.247-.556.549-1.23-1.247zm1.484-1.545l1.412 1.318-.533.571-1.412-1.318zM8.008 5.508h.781v2.695h-.781zm0 3.008h.781v.664h-.781z" fill="#22379c"/></svg>