<svg xmlns="http://www.w3.org/2000/svg" width="28" height="26" fill="none" ><path d="M7.766 4.031h-5.25c-.544 0-.984.441-.984.984v15.094c0 .544.441.984.984.984h22.969c.544 0 .984-.441.984-.984V5.016c0-.544-.441-.984-.984-.984h-5.25" stroke="#22379c" stroke-width="1.094"/><mask id="A" fill="#fff"><path fill-rule="evenodd" d="M12.243.531H15.7l.301.98c.547.153 1.068.367 1.556.635l.898-.476L20.9 4.115l-.466.88a7.32 7.32 0 0 1 .66 1.582l.945.291v3.457l-.945.291a7.31 7.31 0 0 1-.662 1.587l.464.877-2.445 2.444-.896-.474a7.31 7.31 0 0 1-1.554.635l-.301.98h-3.457l-.31-1.009a7.31 7.31 0 0 1-1.498-.63l-.941.498-2.444-2.445.507-.958a7.31 7.31 0 0 1-.608-1.474l-1.043-.321V6.868l1.043-.321a7.31 7.31 0 0 1 .604-1.467l-.51-.964 2.444-2.444.945.5c.471-.263.973-.476 1.5-.631l.31-1.008z"/></mask><g fill="#22379c"><path d="M15.7.531L17.135.09l-.326-1.059H15.7V.531zm-3.457 0V-.969h-1.108L10.809.09l1.434.441zm3.758.98l-1.434.441.241.783.789.221.404-1.445zm1.556.635l-.723 1.315.71.39.716-.379-.702-1.326zm.898-.476L19.517.609l-.784-.784-.98.519.702 1.326zM20.9 4.115l1.326.702.519-.98-.784-.784L20.9 4.115zm-.466.88l-1.326-.702-.383.724.402.714 1.308-.736zm.66 1.582l-1.443.411.223.784.779.24.441-1.434zm.945.291h1.501V5.76l-1.059-.326-.441 1.434zm0 3.457l.441 1.434 1.059-.326v-1.108h-1.501zm-.945.291l-.441-1.434-.779.24-.223.784 1.443.411zm-.662 1.587l-1.308-.736-.402.714.384.724 1.326-.702zm.464.877l1.061 1.061.784-.784-.519-.98-1.326.702zm-2.445 2.444l-.702 1.326.98.519.784-.784-1.061-1.061zm-.896-.474l.702-1.326-.716-.379-.709.39.723 1.315zm-1.554.635l-.404-1.445-.789.221-.241.783 1.434.441zm-.301.98v1.501h1.108l.326-1.059-1.434-.441zm-3.457 0l-1.434.441.326 1.059h1.108v-1.501zm-.31-1.009l1.434-.441-.237-.77-.773-.228-.425 1.44zm-1.498-.63l.732-1.31-.713-.398-.721.382.702 1.326zm-.941.498l-1.061 1.061.784.784.98-.519-.702-1.326zM7.05 13.079l-1.326-.702-.519.98.784.784 1.061-1.061zm.507-.958l1.326.702.378-.713-.387-.708-1.317.72zm-.608-1.474l1.442-.417-.225-.779-.775-.238-.441 1.434zm-1.043-.321H4.406v1.108l1.059.326.441-1.434zm0-3.457l-.441-1.434-1.059.326v1.108h1.501zm1.043-.321l.441 1.434.775-.238.225-.779-1.441-.417zm.604-1.467l1.317.719.386-.708-.377-.713-1.326.702zm-.51-.964L5.983 3.054l-.784.784.519.98 1.326-.702zm2.444-2.444L10.19.345l-.98-.519-.784.784 1.061 1.061zm.945.5l-.702 1.326.722.382.713-.398-.732-1.31zm1.5-.631l.425 1.439.773-.228.237-.77-1.434-.441zM15.7-.969h-3.457v3.001H15.7V-.969zm1.736 2.039l-.302-.98-2.869.883.301.98 2.869-.883zm-1.838 1.887a5.81 5.81 0 0 1 1.236.505l1.446-2.63a8.81 8.81 0 0 0-1.875-.766l-.808 2.891zm2.662.516l.899-.476L17.754.344l-.898.476 1.404 2.653zm-.865-.741l2.444 2.444 2.122-2.122L19.517.609l-2.122 2.122zm2.179.681l-.466.88 2.653 1.404.466-.88-2.653-1.404zm-.448 2.318c.221.394.398.815.524 1.257l2.886-.823a8.81 8.81 0 0 0-.795-1.906l-2.616 1.472zm1.526 2.28l.945.291.883-2.869-.945-.291-.883 2.869zm-.114-1.144v3.457h3.002V6.868h-3.001zm1.059 2.023l-.945.291.883 2.869.945-.291-.883-2.869zm-1.947 1.314c-.126.444-.304.867-.526 1.261l2.615 1.473a8.81 8.81 0 0 0 .798-1.913l-2.887-.822zm-.545 2.7l.464.877 2.653-1.404-.464-.876-2.653 1.404zm.729-.887l-2.445 2.444 2.122 2.122 2.444-2.445-2.122-2.122zm-.681 2.179l-.896-.474-1.404 2.653.896.474 1.404-2.653zm-2.321-.463a5.81 5.81 0 0 1-1.235.504l.808 2.891a8.81 8.81 0 0 0 1.873-.765l-1.446-2.63zm-2.266 1.508l-.301.98 2.869.883.302-.98-2.869-.883zm1.133-.079h-3.457v3.002H15.7v-3.001zm-2.023 1.059l-.31-1.009-2.869.883.31 1.009 2.869-.883zm-1.32-2.007a5.81 5.81 0 0 1-1.19-.501l-1.464 2.62c.566.316 1.171.572 1.805.759l.849-2.879zm-2.624-.517l-.941.498 1.404 2.653.941-.498-1.404-2.653zm.822.763l-2.444-2.444-2.122 2.122 2.444 2.444 2.122-2.122zm-2.179-.681l.507-.958-2.653-1.404-.507.958 2.653 1.404zm.498-2.38a5.81 5.81 0 0 1-.483-1.172l-2.883.834c.18.624.427 1.219.732 1.777l2.634-1.439zM7.39 9.212l-1.043-.321-.883 2.869 1.043.321.883-2.869zm.017 1.113V6.868H4.406v3.457h3.001zM6.348 8.302l1.043-.321-.883-2.869-1.043.321.883 2.869zm2.044-1.338a5.81 5.81 0 0 1 .48-1.166L6.237 4.361a8.81 8.81 0 0 0-.728 1.769l2.883.835zm.489-2.587l-.51-.964-2.653 1.404.51.964L8.88 4.377zm-.776.799l2.445-2.444L8.427.61 5.983 3.054l2.122 2.122zm.681-2.179l.945.5L11.135.845l-.945-.5-1.404 2.653zm2.379.484c.374-.209.774-.378 1.192-.502L11.509.1c-.636.187-1.241.444-1.808.761l1.465 2.62zM10.809.09l-.31 1.008 2.869.883.31-1.008L10.809.09z" mask="url(#A)"/><rect x="11.451" y="8.709" width="1.094" height="2.613" rx=".547" transform="rotate(315 11.451 8.709)"/><rect x="15.717" y="6.591" width="1.094" height="4.514" rx=".547" transform="rotate(45 15.717 6.591)"/><rect x="21.656" y="12.891" width="3.063" height="1.094" rx=".547"/><rect x="3.281" y="12.891" width="3.063" height="1.094" rx=".547"/><rect x="21.656" y="14.641" width="3.063" height="1.094" rx=".547"/><rect x="3.281" y="14.641" width="3.063" height="1.094" rx=".547"/><rect x="21.656" y="16.391" width="3.063" height="1.094" rx=".547"/><rect x="3.281" y="16.391" width="3.063" height="1.094" rx=".547"/><circle cx="21.438" cy="19.563" r=".547"/></g><mask id="B" fill="#fff"><path d="M8.531 24.375c0-.604.49-1.094 1.094-1.094h8.75c.604 0 1.094.49 1.094 1.094v.547c0 .302-.245.547-.547.547H9.078c-.302 0-.547-.245-.547-.547v-.547z"/></mask><path d="M8.531 24.375c0-.604.49-1.094 1.094-1.094h8.75c.604 0 1.094.49 1.094 1.094v.547c0 .302-.245.547-.547.547H9.078c-.302 0-.547-.245-.547-.547v-.547z" stroke="#22379c" stroke-width="2.188" mask="url(#B)"/><g fill="#22379c"><path d="M11.375 21.641h1.094l-.274 1.641h-1.094l.273-1.641zm5.141 0h-1.094l.273 1.641h1.094l-.274-1.641z"/><rect x="22.531" y="19.016" width="3.063" height="1.094" rx=".547"/></g><circle cx="13.973" cy="8.598" r="4.512" stroke="#22379c" stroke-width="1.094"/></svg>