<svg xmlns="http://www.w3.org/2000/svg" width="40" height="40" fill="none" ><g clip-path="url(#A)" fill="#fff"><path opacity=".2" d="M20.97 16.299h-1.938v2.732h-2.734v1.938h2.734v2.734h1.938v-2.734h2.73v-1.938h-2.73v-2.732zM19.999 0h-7.32v19.031H6.785v1.938h5.901v2.732h1.938V1.938h5.374a5.38 5.38 0 0 1 3.787 1.566c1.006 1.001 1.577 2.359 1.587 3.779v3.746h1.94V7.281A7.32 7.32 0 0 0 19.999 0m.97 6.785h-1.938v5.901h-2.732v1.938h21.763v5.374a5.38 5.38 0 0 1-1.566 3.787c-1.001 1.006-2.359 1.577-3.779 1.587h-3.744v1.94h3.748A7.32 7.32 0 0 0 40 19.993v-7.32H20.969V6.785zm6.347 9.514h-1.94v21.763h-5.374a5.39 5.39 0 0 1-3.787-1.567c-1.007-1.001-1.577-2.359-1.588-3.778v-3.744H12.69v3.748A7.32 7.32 0 0 0 20.009 40h7.32V20.969h5.902v-1.938h-5.914v-2.732zm-16.287-3.61H7.281A7.32 7.32 0 0 0 0 20.001v7.32h19.031v5.9h1.938v-5.905h2.732v-1.94H1.938v-5.374c.002-1.42.566-2.781 1.567-3.788a5.38 5.38 0 0 1 3.78-1.586h3.744V12.69z"/><path d="M27.308 19.031H16.301v1.938h11.007v-1.938zm-12.683-6.348h-1.938v14.632h1.938V12.683zm12.687.004H16.305v1.938h11.007v-1.938zm-.021 12.689H16.289v1.938H27.29v-1.938z"/></g><defs><clipPath id="A"><path fill="#fff" d="M0 0h40v40H0z"/></clipPath></defs></svg>