<svg xmlns="http://www.w3.org/2000/svg" width="28" height="28" fill="none" ><g stroke="#22379c" stroke-width="1.094"><path d="M20.016 12.797V4.828c0-.29-.115-.568-.32-.773L16.891 1.25c-.205-.205-.483-.32-.773-.32H2.242A1.64 1.64 0 0 0 .602 2.57v22.695a1.64 1.64 0 0 0 1.641 1.641h16.133a1.64 1.64 0 0 0 1.641-1.641v-6.973"/><path d="M15.34 1.477v3.664c0 .121.098.219.219.219h3.992"/></g><g fill="#22379c"><rect x="2.734" y="8.477" width="13.125" height="1.094" rx=".547"/><rect x="2.734" y="11.758" width="9.844" height="1.094" rx=".547"/><rect x="2.734" y="15.039" width="9.844" height="1.094" rx=".547"/><rect x="2.734" y="18.32" width="9.844" height="1.094" rx=".547"/><rect x="9.297" y="23.352" width="6.563" height="1.094" rx=".547"/></g><path d="M23.616 9.185c.756-.756 1.982-.756 2.738 0s.756 1.982 0 2.738l-7.509 7.509-3.705.967.967-3.705 7.509-7.509zm-8.837 11.308h0z" stroke="#22379c" stroke-width="1.094"/><path d="M17.346 16.187l2.036 2.036-.773.773-2.036-2.036zm5.486-5.504l2.002 2.002-.773.773-2.002-2.002z" fill="#22379c"/></svg>