<svg width="400" height="400" viewBox="0 0 400 400" fill="none" xmlns="http://www.w3.org/2000/svg">
<circle cx="200" cy="200" r="200" fill="black"/>
<circle cx="200" cy="200" r="195" fill="white"/>
<rect x="109" y="230" width="181.132" height="80" rx="40" fill="black"/>
<rect x="109" y="160" width="181.132" height="80" rx="40" fill="black"/>
<rect x="109" y="90" width="181.132" height="80" rx="40" fill="black"/>
<path d="M114.57 270C114.57 250.67 130.24 235 149.57 235H249.57C268.9 235 284.57 250.67 284.57 270C284.57 289.33 268.9 305 249.57 305H149.57C130.24 305 114.57 289.33 114.57 270Z" fill="#3DDB87"/>
<path d="M114.57 200C114.57 180.67 130.24 165 149.57 165H249.57C268.9 165 284.57 180.67 284.57 200C284.57 219.33 268.9 235 249.57 235H149.57C130.24 235 114.57 219.33 114.57 200Z" fill="#3DDB87"/>
<path d="M114.57 130C114.57 110.67 130.24 95 149.57 95H249.57C268.9 95 284.57 110.67 284.57 130C284.57 149.33 268.9 165 249.57 165H149.57C130.24 165 114.57 149.33 114.57 130Z" fill="#3DDB87"/>
</svg>
