<svg id="sellkit_logo" data-name="sellkit logo" xmlns="http://www.w3.org/2000/svg" width="74.7" height="23.6" viewBox="0 0 74.7 23.6">
  <path id="Path_1" data-name="Path 1" d="M409.461,23.6h22.014a5.959,5.959,0,0,0,5.961-5.961V5.961A5.959,5.959,0,0,0,431.475,0H409.461A5.959,5.959,0,0,0,403.5,5.961V17.629A5.967,5.967,0,0,0,409.461,23.6Z" transform="translate(-362.735)" fill="#635cff"/>
  <path id="Path_2" data-name="Path 2" d="M6.829,43.727c-2.526-.647-3.152-.96-3.152-1.92v-.04c0-.707.647-1.273,1.879-1.273a6.08,6.08,0,0,1,3.071.98,1.609,1.609,0,0,0,.818.232,1.479,1.479,0,0,0,1.505-1.485,1.456,1.456,0,0,0-.707-1.273,8.43,8.43,0,0,0-4.647-1.3c-2.99,0-5.122,1.758-5.122,4.4v.04c0,2.91,1.9,3.718,4.849,4.476,2.445.626,2.95,1.041,2.95,1.859v.04c0,.859-.8,1.384-2.111,1.384a6.179,6.179,0,0,1-3.738-1.313,1.6,1.6,0,0,0-.919-.293A1.471,1.471,0,0,0,0,49.718a1.505,1.505,0,0,0,.606,1.212,9.432,9.432,0,0,0,5.5,1.758c3.152,0,5.375-1.627,5.375-4.536v-.04C11.477,45.566,9.8,44.5,6.829,43.727Zm12.1-2.657A5.575,5.575,0,0,0,13.4,46.9v.04a5.6,5.6,0,0,0,5.849,5.789,5.849,5.849,0,0,0,3.89-1.354,1.245,1.245,0,0,0,.414-.94,1.217,1.217,0,0,0-1.233-1.253,1.181,1.181,0,0,0-.778.253,3.64,3.64,0,0,1-2.253.748,2.592,2.592,0,0,1-2.738-2.192h6.294a1.449,1.449,0,0,0,1.485-1.526A5.293,5.293,0,0,0,18.933,41.07ZM16.508,46a2.5,2.5,0,0,1,2.425-2.384A2.409,2.409,0,0,1,21.3,46ZM28.49,37.1A1.591,1.591,0,0,0,26.9,38.7V51.113a1.586,1.586,0,1,0,3.172,0V38.7A1.591,1.591,0,0,0,28.49,37.1Zm6.3,0a1.591,1.591,0,0,0-1.586,1.6V51.113a1.586,1.586,0,1,0,3.172,0V38.7A1.585,1.585,0,0,0,34.794,37.1Z" transform="translate(0 -33.352)" fill="#222"/>
  <path id="Path_3" data-name="Path 3" d="M462.433,41.262a1.582,1.582,0,0,0-1.586,1.586v8.284a1.586,1.586,0,1,0,3.172,0V42.859A1.591,1.591,0,0,0,462.433,41.262Zm9.678,8.7c-.061,0-.273.02-.374.02-.707,0-1.02-.354-1.02-1.091V44.1h1.4a1.354,1.354,0,0,0,0-2.708h-1.4v-1.4a1.586,1.586,0,0,0-3.172,0v1.4h-.1a1.354,1.354,0,0,0,0,2.708h.1v5.314c0,2.6,1.313,3.364,3.263,3.364a4.655,4.655,0,0,0,1.818-.313,1.307,1.307,0,0,0,.818-1.192A1.355,1.355,0,0,0,472.111,49.961Zm-16.993-3.738,2.506-2.152a1.909,1.909,0,0,0,.727-1.384,1.4,1.4,0,0,0-1.4-1.424,1.978,1.978,0,0,0-1.4.707l-3.97,3.758V38.686a1.586,1.586,0,0,0-3.172,0V51.133a1.586,1.586,0,0,0,3.172,0V49.314l1.273-1.152,2.778,3.829a1.5,1.5,0,0,0,1.384.727,1.441,1.441,0,0,0,1.485-1.445,1.65,1.65,0,0,0-.394-1.02Zm7.3-9.123a1.6,1.6,0,1,0,1.6,1.6A1.6,1.6,0,0,0,462.423,37.1Z" transform="translate(-403.099 -33.352)" fill="#fff"/>
</svg>
