<svg xmlns="http://www.w3.org/2000/svg" width="119.079" height="24" viewBox="0 0 119.079 24">
  <g id="woocommerce-logo-color-black" transform="translate(-15 -14.44)">
    <path id="Path_4" data-name="Path 4" d="M18.757,14.44H51.587A3.757,3.757,0,0,1,55.344,18.2V30.724a3.755,3.755,0,0,1-3.757,3.755H39.813l1.612,3.961-7.113-3.961H18.752A3.757,3.757,0,0,1,15,30.724V18.2a3.758,3.758,0,0,1,3.757-3.758Z" transform="translate(0)" fill="#7d57a4"/>
    <path id="Path_5" data-name="Path 5" d="M26.278,29.417a1.359,1.359,0,0,1,1.032-.51,1.223,1.223,0,0,1,1.442,1.184q.775,5.159,1.659,8.758l3.614-6.872a1.57,1.57,0,0,1,1.24-.984q1.086-.076,1.357,1.383a30.751,30.751,0,0,0,1.561,5.635q.651-6.278,2.174-9.077a1.27,1.27,0,0,1,1.089-.73,1.45,1.45,0,0,1,1.04.325,1.27,1.27,0,0,1,.5.953,1.4,1.4,0,0,1-.159.794,19.627,19.627,0,0,0-1.588,5.956,30.2,30.2,0,0,0-.454,6.289A2.005,2.005,0,0,1,40.6,43.6a1.037,1.037,0,0,1-.878.6,1.693,1.693,0,0,1-1.305-.611,16.524,16.524,0,0,1-3.652-7.016q-1.588,3.175-2.382,4.75-1.453,2.794-2.49,2.866-.673.048-1.146-1.13-1.27-3.234-2.725-12.514a1.41,1.41,0,0,1,.259-1.123Z" transform="translate(-9.248 -11.575)" fill="#fff"/>
    <path id="Path_6" data-name="Path 6" d="M204.991,41.591a3.826,3.826,0,0,0-2.636-1.905,4.269,4.269,0,0,0-4.766,2.37,8.761,8.761,0,0,0-1.281,4.644,6.372,6.372,0,0,0,.794,3.266,3.818,3.818,0,0,0,2.637,1.905,4.275,4.275,0,0,0,.894.1A4.4,4.4,0,0,0,204.5,49.5a8.872,8.872,0,0,0,1.283-4.671A6.234,6.234,0,0,0,204.991,41.591Zm-2.08,4.574a4.365,4.365,0,0,1-1.254,2.44,1.583,1.583,0,0,1-1.331.532q-.6-.121-.97-1.067a4.258,4.258,0,0,1-.291-1.5,5.9,5.9,0,0,1,.121-1.21,5.44,5.44,0,0,1,.87-1.959q.822-1.208,1.718-1.015.6.122.968,1.064a4.253,4.253,0,0,1,.289,1.5A5.889,5.889,0,0,1,202.911,46.165Z" transform="translate(-152.521 -21.157)" fill="#fff"/>
    <path id="Path_7" data-name="Path 7" d="M139.911,41.591a3.826,3.826,0,0,0-2.636-1.905,4.267,4.267,0,0,0-4.765,2.37,8.748,8.748,0,0,0-1.283,4.644,6.373,6.373,0,0,0,.794,3.266,3.811,3.811,0,0,0,2.637,1.905,4.276,4.276,0,0,0,.894.1,4.4,4.4,0,0,0,3.871-2.466,8.891,8.891,0,0,0,1.294-4.671,6.234,6.234,0,0,0-.794-3.241Zm-2.08,4.574a4.357,4.357,0,0,1-1.257,2.444,1.585,1.585,0,0,1-1.331.532q-.6-.121-.967-1.07a4.258,4.258,0,0,1-.291-1.5,5.9,5.9,0,0,1,.121-1.21,5.494,5.494,0,0,1,.87-1.959q.819-1.205,1.718-1.011.6.122.967,1.064a4.257,4.257,0,0,1,.291,1.5,5.888,5.888,0,0,1-.121,1.21Z" transform="translate(-97.774 -21.157)" fill="#fff"/>
    <path id="Path_8" data-name="Path 8" d="M286.646,42.634A5.6,5.6,0,0,0,285,46.782a5.989,5.989,0,0,0,1.632,4.377,5.688,5.688,0,0,0,4.269,1.661,6.689,6.689,0,0,0,1.72-.268V49.89a5.452,5.452,0,0,1-1.5.252,2.672,2.672,0,0,1-2.1-.88,3.924,3.924,0,0,1,0-4.7,2.482,2.482,0,0,1,1.962-.908,6.064,6.064,0,0,1,1.64.238V41.216a7.051,7.051,0,0,0-1.8-.218A5.687,5.687,0,0,0,286.646,42.634ZM298.091,41a4.415,4.415,0,0,0-3.564,1.518,6.315,6.315,0,0,0-1.27,4.233,6.975,6.975,0,0,0,1.27,4.5,4.491,4.491,0,0,0,3.693,1.561,4.378,4.378,0,0,0,3.607-1.561,6.811,6.811,0,0,0,1.273-4.379,6.555,6.555,0,0,0-1.286-4.347A4.613,4.613,0,0,0,298.091,41Zm1.307,8.574a1.467,1.467,0,0,1-1.307.7,1.324,1.324,0,0,1-1.207-.7,6.172,6.172,0,0,1-.414-2.783q0-3.25,1.64-3.25,1.747,0,1.746,3.288A5.634,5.634,0,0,1,299.4,49.572Zm11.859-8.256-.591,2.521q-.23.969-.43,1.985l-.33,1.746q-.476-2.615-1.291-6.248H304.78l-1.44,11.225h2.872l.781-7.735,1.961,7.735h2.053l1.87-7.737.811,7.72h3l-1.524-11.212Zm13.737,0-.591,2.521q-.23.969-.43,1.985l-.33,1.746q-.476-2.615-1.292-6.248h-3.833l-1.445,11.214h2.872l.78-7.735,1.962,7.735h2.051l1.877-7.726.811,7.72h3l-1.521-11.212Zm9.322,6.78h2.7V45.762h-2.7V43.7h3.1V41.316h-6.135V52.541h6.156v-2.4h-3.123Zm11.665-1.77a3.06,3.06,0,0,0-.772-4.092,5.571,5.571,0,0,0-3.382-.918h-3.534V52.541h3.034V47.422h.049l2.451,5.112h3.2l-2.423-5.062A2.925,2.925,0,0,0,345.98,46.325Zm-4.654-.181V43.478a2.826,2.826,0,0,1,1.545.362,1.277,1.277,0,0,1,.467,1.111q0,1.159-2.012,1.192Zm6.919-3.51a5.6,5.6,0,0,0-1.651,4.149,5.955,5.955,0,0,0,1.635,4.369,5.735,5.735,0,0,0,4.269,1.661,6.691,6.691,0,0,0,1.726-.26V49.89a5.453,5.453,0,0,1-1.5.252,2.674,2.674,0,0,1-2.1-.88,3.467,3.467,0,0,1-.789-2.39,3.423,3.423,0,0,1,.781-2.312,2.482,2.482,0,0,1,1.962-.908,6.072,6.072,0,0,1,1.645.238V41.216A7.051,7.051,0,0,0,352.419,41,5.687,5.687,0,0,0,348.245,42.634Zm9.844,7.505V48.1h2.7V45.762h-2.7V43.7h3.1V41.316h-6.137V52.541h6.156v-2.4Z" transform="translate(-227.131 -22.341)"/>
  </g>
</svg>
