<?xml version="1.0" standalone="no"?>
<!DOCTYPE svg PUBLIC "-//W3C//DTD SVG 20010904//EN"
 "http://www.w3.org/TR/2001/REC-SVG-20010904/DTD/svg10.dtd">
<svg version="1.0" xmlns="http://www.w3.org/2000/svg"
 width="390.000000pt" height="390.000000pt" viewBox="0 0 390.000000 390.000000"
 preserveAspectRatio="xMidYMid meet">
<metadata>
Created by potrace 1.14, written by Peter Selinger 2001-2017
</metadata>
<g transform="translate(0.000000,390.000000) scale(0.100000,-0.100000)"
fill="#000000" stroke="none">
<path d="M1789 3895 c-2 -2 -34 -6 -71 -9 -37 -4 -77 -9 -90 -12 -13 -2 -34
-6 -48 -9 -50 -9 -66 -13 -127 -29 -162 -42 -380 -136 -523 -224 -41 -26 -79
-50 -85 -55 -5 -4 -35 -26 -65 -48 -110 -80 -235 -201 -351 -339 -207 -247
-363 -610 -413 -966 -13 -96 -16 -469 -4 -490 3 -5 8 -31 12 -59 3 -27 8 -61
11 -75 3 -14 8 -40 11 -59 12 -71 88 -290 138 -396 121 -256 325 -522 511
-667 16 -13 37 -30 46 -39 29 -29 243 -166 314 -202 139 -70 346 -147 434
-162 19 -3 37 -7 40 -9 3 -2 24 -7 46 -10 22 -4 52 -9 67 -11 101 -18 175 -22
338 -20 199 4 213 5 365 36 293 60 602 206 830 393 126 104 241 221 318 325
23 31 44 58 47 61 22 21 93 141 154 260 64 124 139 336 161 452 3 13 7 34 10
48 8 43 16 93 24 160 9 70 7 393 -3 450 -4 19 -13 78 -22 130 -21 124 -99 358
-163 488 -123 248 -315 490 -521 654 -41 33 -82 65 -91 72 -41 34 -224 140
-311 181 -249 118 -501 175 -799 180 -103 2 -188 2 -190 0z"/>
</g>
</svg>
